<svg version="1" xmlns="http://www.w3.org/2000/svg" width="889.333" height="889.333" viewBox="0 0 667.000000 667.000000"><path d="M211.5 86c-4 1.6-7.7 6.8-9.5 13.2l-1.7 6.3-1.6-3.1c-2.9-5.7-7.2-8.4-13.1-8.4-9.8 0-15.6 6.4-15.6 17.1v5.7l-7.3 7.3c-4 4.1-8.5 9.9-10.1 12.9-1.6 3-5.3 9.2-8.3 13.8-5.8 8.8-7.6 13.2-6.7 16.6.4 1.6-.8 3.7-4.4 7.8-30 34.3-50 78.2-56.9 124.7-2.1 14.3-2.4 49.5-.5 62.6 8.2 58 32.7 106 74.1 145.8 31.4 30 70.9 52 114.2 63.6 6 1.7 12.5 3.9 14.3 5.1 2.8 1.7 4.8 2 11.7 1.8 4.6-.1 14 .4 20.9 1.1 6.9.7 20.4 1.2 30 1.2 9.6-.1 20.2.1 23.5.4 5.1.5 6.5.2 9.5-1.7 2-1.2 8.2-3.2 14.6-4.5 6.1-1.2 16.3-3.8 22.7-5.8 6.4-1.9 12.1-3.5 12.6-3.5s1.2 1.5 1.5 3.3c.6 3.4 4.2 7.5 8.3 9.6 3.4 1.7 10.4 1.3 14-.9 4.6-2.7 6.5-7.2 7.7-17.5l1.1-9 6.9-3.7c3.8-2.1 7.1-3.8 7.2-3.8.2 0 .1 5.5-.2 12.3-.5 10.8-.4 12.6 1.4 15.7 5.8 10.6 21.3 10.9 27.4.5 1.4-2.5 2-7.7 3.1-27.3l1.4-24.2 12.2-11.6c42.3-40.3 67.2-88.8 75.3-146.4 1.9-13.7 1.6-48.6-.5-63.1-6.3-42.5-23-81.6-49.5-115.9-8.2-10.6-30.1-32.6-40.7-41-28.7-22.7-64.7-40.5-100.3-49.4-24.9-6.2-39.3-8-66.7-8-19.8 0-26.5.4-38.4 2.3-16.4 2.5-40.7 8.5-52.9 13-4.6 1.7-8.5 3.1-8.8 3.1-.2 0-.4-1.9-.4-4.3 0-8.3-6.6-14.7-15-14.6-2.5 0-5.4.4-6.5.9zm143 8c61.7 5.3 118.9 31.4 161 73.5 30.5 30.5 51.8 67.6 62.1 108.1 3 12.1 6.4 32 6.4 37.9v2.5l-31.2-.2-31.3-.3-.3-27.9c-.2-24.3-.4-28.2-1.9-29.8-1.5-1.7-5-1.8-63.5-1.8h-61.9l-8.7-7.5c-4.9-4.3-11.7-9-15.9-11l-7.3-3.6v-60.1c0-54.6-.2-60.3-1.7-62-1.5-1.7-4.2-1.8-43.8-1.8-39.4 0-42.3.1-43.8 1.8-1.4 1.6-1.7 5.2-1.9 24.8-.3 22.8-.3 22.9-2.2 20.1-1.5-2.2-1.8-4.4-1.7-12 .2-8.1-.1-9.7-1.9-12-2-2.5-2.7-2.7-9.9-2.7-6.7 0-8.1-.3-9.7-2.1-1-1.2-4.9-4.4-8.6-7.2-3.8-2.7-6.8-5.3-6.8-5.7 0-1 5.4-3.2 18.5-7.7 34.1-11.6 71.1-16.2 106-13.3zm-.5 80c0 39.6-.3 56-1.1 56-.6 0-5.6-2.3-11.2-5.2-22.8-11.7-41.9-27.2-55.9-45.1l-6.8-8.9V118h75v56zm-96-33.9c0 1.8-.2 1.9-1.5.9-.8-.7-1.5-1.6-1.5-2.1s.7-.9 1.5-.9c.9 0 1.5.9 1.5 2.1zm-47.2 6l.3 6.6-4.1 2.2c-2.2 1.1-5.9 3.1-8.2 4.3-3.5 1.9-5.9 2.3-12.5 2.3-10.9 0-11.7-.8-7.8-8.1 6.5-12 10.7-14.5 24-14.1l8 .2.3 6.6zm21.4 12.1c4.6 5.5 12.2 15.4 17.1 22.1l8.7 12.1v28.9l-3.3-4.4c-5.4-7.1-10.9-15.6-18.9-29-7.2-12-7.5-12.7-7.1-17.5.6-6.1-1.2-10.1-6.2-14.1-3-2.4-3.5-3.4-3.5-7.1V145l2.5 1.6c1.3.9 6.2 6.1 10.7 11.6zm-75.1 30.1c9.4 5.6 18.6 8.1 29.4 8.2 5 0 10.4-.3 12.2-.7 3.1-.7 3.2-.6 7.7 7.7l4.6 8.5v104h-9v-34.2c0-33.7 0-34.2-2.2-36.5-2.1-2.3-2.5-2.3-23.7-2.3-20.7 0-21.6.1-23.8 2.2l-2.3 2.1V316H83v-3c0-11.4 7.2-43.6 13.5-60.5 8.5-22.8 24.4-50.3 39.5-68.3l6.1-7.3 4.3 3.8c2.4 2.1 7.2 5.5 10.7 7.6zm112.1 18.4c1.6 1.4 1.8 3.3 1.8 15.7v14l-2.1-2c-1.8-1.9-2-3.4-2.2-15.7-.1-7.5 0-13.7.2-13.7.3 0 1.3.7 2.3 1.7zm14.4 14.4c4.6 4.9 21.6 17.3 32 23.5 5.2 3.1 16 8.7 24 12.5l14.4 6.8v27.8c0 35.2-1.9 32.3 20.4 32.3 15 0 16.1-.1 18.3-2.2 2.1-2 2.3-3 2.3-12.4v-10.3l9.1 5.9c8.5 5.4 19.3 10.4 39.7 18 14.3 5.5 22.7 16.4 25.3 33 1.4 9.2.7 17.4-2.6 30.5-5.3 20.9-2.6 54.6 6.5 80.9 2 5.9 2 6.2.4 35.5-1.9 33.3-1.1 30.8-10.7 36.1l-5.9 3.3.6-4.4c1.2-8.7 6.6-69.8 6.6-74.3 0-3.6-1.3-7-6-16.3-5.8-11.5-12.1-28.8-13.4-36.8-.7-3.9-.5-4.2 6-10.5 7.9-7.8 8.6-8.9 8.6-14.5 0-8.6-6.7-15.5-15-15.5-5.5 0-7.3 1-14.9 8.1-9.6 8.9-14.4 10.4-32.3 10.3-10.7-.1-16.4-.7-21.5-2l-7-1.9-1.2-10.4c-1.5-12.7-3.8-17-10.7-19.6-7.8-3-16.3.4-20 8l-2 3.9 6.7 56.6c6.6 55.5 6.7 57.3 8.2 100 .8 23.9 1.5 45 1.5 46.9v3.4l-22.2-.7c-25.7-.7-29.2-1.1-28.3-3.4.3-.9 2.8-23.2 5.5-49.6l4.9-48.1 10.1-37.9c7.1-26.4 10.1-39 9.7-41.5-.2-2-1.9-10.6-3.6-19.1-4.6-21.7-4.5-28.6.4-41 3.2-7.9 3.9-10.7 3.9-17 .1-12.3-1.9-15.1-34.1-49.2L279 246.5v-14.2c0-7.9.4-14.3.8-14.3.5 0 2.1 1.4 3.8 3.1zM230.4 240c4.3 5.8 12.3 15.8 17.7 22.2l9.9 11.7v22.4c0 21.2.1 22.6 2.1 25.1 1.8 2.3 2.7 2.6 8.2 2.6 4.9 0 6.5-.4 8.4-2.2 2.2-2 2.3-2.9 2.3-15 0-7.1.4-12.8.9-12.8 1.3 0 20.1 20.3 20.1 21.7 0 .6-1.4 5.2-3 10.2-5.2 15.4-5 25.8.7 54.4l2.5 12.8-10 37.2-10.1 37.2-4.6 48.5c-2.6 26.7-4.9 48.7-5.1 48.9-.6.7-13.4-3-26.1-7.5-95.6-34.3-160.9-122.3-161.7-217.9l-.1-15 35.9-.3c31.6-.2 36.2-.4 37.8-1.9 1.6-1.5 1.8-4.3 2-36.2l.3-34.6 17.8-.3 17.7-.2v34.2c0 33.7 0 34.2 2.2 36.5 1.9 2 3.1 2.3 10.2 2.3 6.8 0 8.3-.3 10.3-2.2l2.3-2.1.1-47.6c0-45.1.1-47.5 1.7-45.1.9 1.3 5.2 7.2 9.6 13zM513 291.7c0 27 0 27.7 2.2 30l2.1 2.3H584l.6 2.7c.4 1.4.4 8.5.1 15.7-2.7 59.1-25.9 112-67.9 155.1-6.4 6.6-11.9 11.7-12.1 11.5-.2-.3.2-10 .8-21.5 1-17 1-21.5 0-23.5-4.7-9.2-8.4-28.5-9.2-47.9-.7-16.7.5-18.2 3.1-3.9 4.1 22 4.9 25.7 7.1 32.1 3 8.7 7.9 16.3 11.9 18.4 4.7 2.5 12.5 2.2 16.4-.6 7.2-5.1 8.3-12.5 3.4-22.2-2.5-4.9-4.2-11.1-7.2-26.2-4.6-23.2-6.7-30.7-11.4-40.2-4-8.4-9.3-14.6-15-18-4.1-2.4-4.4-2.8-6.4-11.2-3.4-13.5-9.3-24.4-18.2-33.4-9.1-9.3-13-11.5-31.2-18.5-7.8-3-18.1-7.5-22.8-10-8.3-4.2-23-15.4-23-17.4 0-.6 20.9-1 55-1h55v27.7zm-126 12.5V316h-25v-48.5l12.5 12.5 12.5 12.5v11.7zm-117.8-19.5c1.6 1.4 1.8 3.3 1.8 16.5 0 14.5-.1 14.9-2.1 14.6-1.9-.3-2-1-2.2-16.6-.1-8.9 0-16.2.2-16.2.3 0 1.3.7 2.3 1.7zM386.1 421c7.9.6 14.9.6 19.3-.1 3.8-.5 7-.8 7-.7.1.2 2.2 6.6 4.8 14.3 2.5 7.8 6.6 18.2 9.1 23.3l4.6 9.1-2.9 44.3c-1.7 24.4-3 44.6-3 45 0 1-20.1 7.2-32.8 10.2-7.3 1.7-10.4 2.1-10.7 1.3-.2-.7-1.5-22.1-3-47.7-2.2-39.1-5.4-77.4-8-96.8-.6-4-.5-4.3 1.2-3.8 1.1.4 7.5 1 14.4 1.6z"/></svg>