<?xml version="1.0" encoding="UTF-8" standalone="no"?>
<svg
   xmlns:dc="http://purl.org/dc/elements/1.1/"
   xmlns:cc="http://creativecommons.org/ns#"
   xmlns:rdf="http://www.w3.org/1999/02/22-rdf-syntax-ns#"
   xmlns:svg="http://www.w3.org/2000/svg"
   xmlns="http://www.w3.org/2000/svg"
   xmlns:xlink="http://www.w3.org/1999/xlink"
   xmlns:sodipodi="http://sodipodi.sourceforge.net/DTD/sodipodi-0.dtd"
   xmlns:inkscape="http://www.inkscape.org/namespaces/inkscape"
   id="Site_Logo"
   viewBox="0 0 667 511"
   version="1"
   inkscape:version="0.48.4 r9939"
   width="100%"
   height="100%"
   sodipodi:docname="logo.svg">
  <metadata
     id="metadata724">
    <rdf:RDF>
      <cc:Work
         rdf:about="">
        <dc:format>image/svg+xml</dc:format>
        <dc:type
           rdf:resource="http://purl.org/dc/dcmitype/StillImage" />
      </cc:Work>
    </rdf:RDF>
  </metadata>
  <sodipodi:namedview
     pagecolor="#ffffff"
     bordercolor="#666666"
     borderopacity="1"
     objecttolerance="10"
     gridtolerance="10"
     guidetolerance="10"
     inkscape:pageopacity="0"
     inkscape:pageshadow="2"
     inkscape:window-width="1920"
     inkscape:window-height="1021"
     id="namedview722"
     showgrid="false"
     inkscape:zoom="0.46183953"
     inkscape:cx="333.5"
     inkscape:cy="255.5"
     inkscape:window-x="-2"
     inkscape:window-y="-3"
     inkscape:window-maximized="1"
     inkscape:current-layer="Site_Logo" />
  <defs
     id="defs44">
    <filter
       id="filter1795"
       x="0"
       width="1"
       y="0"
       height="1"
       color-interpolation-filters="sRGB">
      <feGaussianBlur
         stdDeviation="28"
         id="feGaussianBlur1797" />
    </filter>
    <path
       transform="rotate(30)"
       stroke-miterlimit="10"
       d="M-1 55h2v-93c2-2 2-5 2-8 0-2 0-10-3-19-3 9-3 17-3 19 0 3 0 6 2 8z"
       id="spearshape" />
    <filter
       id="filter1795-8"
       x="0"
       width="1"
       y="0"
       height="1"
       color-interpolation-filters="sRGB">
      <feGaussianBlur
         stdDeviation="28"
         id="feGaussianBlur1797-3" />
    </filter>
    <clipPath
       id="band">
      <circle
         r="735"
         id="circle53" />
    </clipPath>
    <clipPath
       id="gcut">
      <path
         d="M-31 0v-70h63V0zM0-47v12h32v-12z"
         id="path11" />
    </clipPath>
    <radialGradient
       gradientTransform="matrix(.0989 .0037 -.0045 .1943 442 123)"
       r="26"
       cy="740"
       cx="381"
       gradientUnits="userSpaceOnUse"
       xlink:href="#lg"
       id="rg3" />
    <radialGradient
       gradientTransform="matrix(-.17642 -.07067 .06515 -.16392 431 378)"
       r="26"
       cy="550"
       cx="652"
       gradientUnits="userSpaceOnUse"
       xlink:href="#lg"
       id="rg2" />
    <radialGradient
       gradientTransform="matrix(.18574 .04718 -.04532 .18635 234 199)"
       r="26"
       cy="104"
       cx="842"
       gradientUnits="userSpaceOnUse"
       xlink:href="#lg"
       id="rg1" />
    <linearGradient
       id="lg">
      <stop
         id="stop3038"
         offset="0"
         stop-color="#fff" />
      <stop
         id="stop3040"
         offset="1"
         stop-color="#f15770" />
    </linearGradient>
  </defs>
  <style
     id="style3">.st0{fill:#337fbe}.st1{fill:#3bb54a}</style>
  <g
     id="Globe"
     transform="matrix(1.126689,0,0,0.85472207,-49.077598,29.809272)" />
  <path
     style="fill:#a5bbc2;fill-opacity:1"
     d="M 221.90625 10.3125 C 220.95431 10.376685 219.96451 10.647056 219.03125 11.09375 C 217.7353 11.714039 217.21302 14.385782 216.75 22.53125 C 216.35163 29.53921 215.61845 33.623159 214.625 34.53125 C 212.85949 36.145051 211.15625 36.329806 211.15625 34.90625 C 211.15625 32.553225 207.3795 30.78125 202.375 30.78125 L 197.3125 30.78125 L 198.0625 34.78125 C 198.46114 36.987604 199.79646 39.596657 201.03125 40.59375 C 202.26603 41.590852 203.28125 43.449906 203.28125 44.71875 C 203.28125 45.987593 203.8345 47.716128 204.53125 48.5625 C 205.54254 49.790949 205.14779 51.161272 202.5625 55.375 C 200.78132 58.278141 199.01748 60.6824 198.625 60.6875 C 198.23252 60.692397 197.61342 59.901113 197.28125 58.9375 C 196.74043 57.368576 195.94676 57.208033 189.59375 57.4375 L 182.5 57.6875 L 181.46875 61 C 180.54109 63.987903 180.72899 64.471002 183.375 66.125 C 185.69526 67.575378 186.37346 68.8267 186.625 72.21875 L 186.9375 76.5 L 191.4375 76.78125 C 197.38623 77.148532 198.94259 78.288793 198.53125 81.90625 C 198.20789 84.749996 197.64376 85.207596 192.03125 87.1875 C 191.11583 87.510431 190.06761 88.681745 189.71875 89.8125 C 189.17258 91.582697 188.34309 91.928296 183.65625 92.15625 L 178.21875 92.40625 L 178.75 96.71875 C 179.20122 100.28113 178.9142 101.30337 177 102.65625 C 175.72941 103.55424 174.36495 104.28125 174 104.28125 C 172.04631 104.28125 167.90337 101.11049 166.5 98.5625 C 164.82649 95.524031 165.06369 94.751959 168.5 91.84375 C 169.63742 90.881128 171.52436 88.000615 172.6875 85.4375 C 173.85065 82.874394 175.82524 79.487563 177.09375 77.90625 C 178.96905 75.568525 179.17846 74.551736 178.25 72.53125 C 177.1709 70.182969 174.3834 68.375 171.84375 68.375 C 171.21425 68.375 170.56085 70.578191 170.375 73.28125 L 170.03125 78.21875 L 162.71875 78.21875 C 158.69083 78.233348 154.35606 78.53712 153.09375 78.875 C 151.77315 79.228479 148.20838 78.860559 144.71875 78 C 139.63685 76.746772 138.45732 76.046117 137.4375 73.75 C 135.73507 69.916905 134.12538 68.834852 132.40625 70.40625 C 131.31322 71.405369 131.38158 72.196684 132.78125 74.25 C 133.74971 75.670719 134.52925 78.681196 134.53125 80.9375 C 134.53636 85.289848 137.5391 89.556865 143.84375 94.21875 C 149.80525 98.626894 146.38566 101.90717 134.40625 103.34375 C 126.69875 104.26804 124.70879 103.12295 126.71875 98.90625 C 127.8936 96.441496 127.90805 95.355304 126.8125 93.53125 C 125.54952 91.428437 125.05308 91.25832 120.625 91.71875 C 117.9719 91.99462 114.363 92.654964 112.625 93.15625 C 109.73173 93.990732 109.53281 94.323604 110.15625 97.28125 C 110.65068 99.626923 110.21376 101.39451 108.59375 103.6875 C 105.50035 108.06591 105.79855 109.88875 109.8125 111.6875 C 111.69706 112.53201 113.45681 113.99257 113.75 114.9375 C 115.55503 120.75471 114.22653 188.69822 112.125 197.78125 C 111.48408 200.5514 111.25229 203.19876 111.625 203.65625 C 112.13371 204.28069 113.13809 239.83276 113.28125 261.96875 C 113.39439 279.46274 111.61535 310.92214 110.34375 313.65625 C 109.02302 316.49615 109.01092 317.98952 110.34375 323.78125 C 111.46659 328.66046 111.59105 331.41525 110.78125 333.46875 C 110.1391 335.09714 109.98732 339.22925 110.40625 343.03125 C 110.94824 347.95007 110.58947 351.61226 109.125 356.90625 C 107.2166 363.80489 107.22975 364.32936 109.15625 369.15625 C 110.63502 372.86137 110.94824 375.45686 110.375 378.9375 C 109.75935 382.67547 110.01899 384.12412 111.53125 385.875 C 113.91802 388.63838 113.19562 394.76946 109.78125 400.625 L 107.40625 404.625 L 109.78125 408.78125 C 112.23448 413.10738 111.99255 415.46297 108.875 418.15625 C 106.19392 420.47245 105.25 419.98536 105.25 416.21875 C 105.25 413.07322 104.87482 412.62914 101.3125 411.5 C 93.774962 409.11083 93.46834 408.05238 93.09375 385.09375 C 92.909382 373.79131 92.83869 362.42928 92.9375 359.84375 C 93.111582 355.29241 93.091 352.16787 92.9375 336.75 C 92.89749 332.75418 92.9019 327.77169 92.9375 325.65625 C 93.019388 320.78524 91.774522 314.38931 90.5 313.1875 C 89.961781 312.67997 87.9958 312.44795 86.125 312.65625 C 81.545765 313.1661 81.393315 310.51423 85.9375 309.3125 C 91.418537 307.86302 98.342269 295.71675 93.6875 295.71875 C 92.912901 295.71899 89.555845 296.50657 86.21875 297.46875 L 80.15625 299.21875 L 77.59375 297.40625 C 75.158626 295.6708 74.894093 295.67038 72.15625 297.03125 C 69.324317 298.4389 69.210815 298.39518 64.875 294.9375 C 60.236196 291.2382 57.514672 290.98407 56.1875 294.15625 C 55.01731 296.95321 57.886742 300.83123 62.3125 302.40625 C 65.696533 303.61056 66.440864 304.34613 66.71875 306.84375 C 67.002124 309.3907 66.539916 310.06551 63.6875 311.34375 C 60.957229 312.56725 60.067091 313.76307 58.96875 317.75 C 56.708228 325.95563 56.11969 331.82293 56.875 338.0625 C 57.271459 341.33756 57.356144 346.70932 57.09375 350 C 56.79058 353.802 57.470686 359.55018 58.9375 365.78125 L 61.25 375.59375 L 58.3125 377.9375 C 55.723042 379.9879 55.448291 380.7626 55.9375 384.625 C 56.341677 387.81599 56.008575 389.35019 54.78125 390.28125 C 52.182046 392.25305 51.460306 390.79677 50.9375 382.71875 C 50.296087 372.80807 49.056721 371.7281 38.78125 371.9375 C 34.656889 372.02154 30.7348 371.84646 30.0625 371.53125 C 28.293692 370.70195 8.5139886 369.25351 6.59375 369.8125 C 5.258752 370.20113 4.96875 373.23805 4.96875 386.9375 C 4.96875 388.52252 4.9886403 389.58466 5 390.90625 C 7.3994141 395.40723 9.9271143 399.83558 12.5625 404.21875 C 14.459312 404.81937 16.13528 405.5922 16.65625 406.21875 C 17.638024 407.39948 17.527575 408.87034 16.40625 410.46875 C 41.438242 449.89536 75.972934 484.19446 117.375 511.03125 C 262.24265 510.81796 407.69131 510.3568 554.34375 510.6875 C 605.94241 477.11926 646.8685 431.97576 671.90625 379.71875 C 671.89783 352.17767 671.90579 323.39939 671.96875 284.75 L 667.9375 283.75 C 663.92351 282.74504 652.47712 282.45877 650.65625 283.3125 C 650.12952 283.55945 648.12995 283.31793 646.21875 282.8125 C 643.56143 282.10976 640.88727 282.21262 634.875 283.25 C 625.49441 284.86855 619.96666 284.99087 618.125 283.59375 C 617.37795 283.02703 616.7636 280.26347 616.75 277.40625 C 616.73425 274.11505 615.8872 270.87141 614.46875 268.5 C 613.24301 266.45074 612.25 263.42173 612.25 261.78125 C 612.25 257.96834 609.29603 253.24726 605.84375 251.53125 C 603.65273 250.44218 600.83452 250.28803 590.59375 250.65625 C 573.46374 251.27219 573.67318 251.03362 574.65625 266.65625 C 575.19611 275.23548 575.05964 278.54715 574.09375 279 C 573.36714 279.34067 570.08167 279.83779 566.8125 280.09375 L 560.875 280.5625 L 559.5625 275.09375 C 558.07736 268.98121 555.46644 266.6875 550.09375 266.6875 C 545.04705 266.6875 542.47929 265.22907 540.125 261.0625 C 537.64016 256.66489 534.19159 256.00297 530.28125 259.1875 C 526.8814 261.95629 518.78814 273.10428 518 276.09375 C 517.36565 278.49988 512.88848 282.07178 505.78125 285.8125 C 499.85158 288.93345 498.5034 292.97242 498.4375 308.125 C 498.40476 315.64655 497.91024 324.6623 497.3125 328.15625 C 496.41362 333.41038 496.51463 334.8526 497.9375 336.5 C 499.54878 338.36552 499.50123 338.52503 497.09375 339.21875 C 492.77507 340.46318 484.56918 340.18222 482.4375 338.71875 C 481.00385 337.73451 478.98294 337.51077 474.84375 337.8125 L 469.21875 338.21875 L 468.53125 335.125 C 464.99356 318.71987 456.94199 299.58339 451.25 294.09375 C 449.49887 292.40486 447.67767 290.08149 447.21875 288.90625 C 446.75984 287.73101 444.97141 285.02168 443.25 282.90625 C 441.5286 280.79081 439.77988 277.528 439.34375 275.65625 C 438.74221 273.07461 437.19705 271.33591 433 268.40625 C 423.17392 261.54735 409.37487 251.82134 403.21875 247.4375 C 399.91801 245.08701 394.96859 241.74059 392.21875 240 C 383.63153 234.5645 369.29759 217.08179 360.84375 201.71875 C 357.62287 195.86551 355.95305 194.26016 341.0625 182.9375 C 326.78604 172.08181 318.905 165.18867 309.46875 155.28125 C 307.69678 153.4208 306.9375 151.40261 306.9375 148.59375 C 306.9375 145.49128 306.24823 143.95826 303.9375 141.875 C 300.56926 138.83833 292.28125 126.75172 292.28125 124.875 C 292.28125 124.20228 291.02044 122.00863 289.46875 120 C 286.29894 115.89674 282.7483 106.48173 283.6875 104.625 C 284.02592 103.95597 285.56936 103.40625 287.09375 103.40625 C 292.78975 103.40625 295.81848 97.624293 291.125 95.71875 C 289.8801 95.213327 286.86278 91.768943 284.40625 88.0625 C 281.94971 84.356058 279.39411 81.066649 278.71875 80.75 C 278.04338 80.43336 276.54646 80.810953 275.40625 81.59375 C 273.42972 82.950707 273.23422 82.802977 270.96875 78.0625 C 269.66187 75.327843 267.89675 72.112743 267.0625 70.9375 C 266.22825 69.762257 264.94163 66.881735 264.1875 64.53125 C 263.43338 62.180764 261.59636 59.027706 260.09375 57.53125 C 256.75858 54.209731 256.60163 51.222103 259.65625 49.125 C 261.3113 47.988766 261.75418 46.914744 261.28125 45.28125 C 260.83162 43.728289 261.21918 42.637973 262.53125 41.8125 C 264.9184 40.310633 267.5 35.760036 267.5 33.03125 C 267.5 28.361057 260.05683 27.961224 258.84375 32.5625 C 258.02846 35.654953 255.75228 35.745803 253.21875 32.8125 C 251.49518 30.816972 251.44363 29.992248 252.75 24.90625 C 255.54731 14.015706 255.5749 12.208463 252.90625 11.125 C 247.495 8.9280396 243.90455 11.941748 242.8125 19.59375 C 242.24073 23.600046 241.67089 24.503886 238.96875 25.625 C 235.93241 26.884775 235.70228 26.832495 233.0625 24.53125 C 231.54948 23.212268 230.3155 21.483956 230.3125 20.6875 C 230.30108 18.053136 228.00597 12.894601 226.25 11.5625 C 225.02655 10.634373 223.49282 10.205526 221.90625 10.3125 z M 227.71875 73.75 C 229.01483 73.762197 230.23234 73.882963 231.21875 74.15625 C 232.62864 74.546866 238.20515 80.810755 241.5 85.6875 C 242.37295 86.979558 242.83556 88.206649 242.53125 88.4375 C 241.71262 89.058524 236.46936 84.5896 234.4375 81.53125 C 233.46644 80.069624 231.05656 78.366776 229.09375 77.75 C 226.0387 76.790019 224.78161 76.832315 220.40625 78.0625 C 214.18082 79.812859 213.14211 79.301637 217 76.375 C 219.11813 74.768176 223.83052 73.713409 227.71875 73.75 z M 176.71875 107.6875 C 177.74169 107.68348 178.87132 109.02641 180.03125 111.71875 C 183.00457 118.62019 183.33377 122.50859 181.5 128.75 C 180.55071 131.981 179.4318 137.21517 179 140.40625 C 178.52812 143.8935 177.43538 146.95197 176.25 148.0625 L 174.25 149.90625 L 172.3125 147.0625 C 170.77639 144.80904 170.53272 143.07062 171.125 138.875 C 171.68237 134.92666 171.40243 132.71981 170.09375 130.34375 C 167.82435 126.22338 167.8705 124.02588 170.25 122.03125 C 171.31799 121.136 172.69479 117.71189 173.375 114.28125 C 174.24277 109.90454 175.40354 107.69267 176.71875 107.6875 z M 137.5625 111.65625 C 138.35327 111.61656 139.25856 111.63591 140.28125 111.65625 C 142.79433 111.70624 145.42735 112.19706 146.15625 112.75 C 147.14788 113.50225 147.45465 127.15789 147.3125 166.9375 C 147.15457 211.11356 147.11578 268.32026 147.25 293.15625 C 147.2665 296.21188 147.2496 302.17537 147.1875 306.40625 C 147.1254 310.63712 147.10635 316.60062 147.15625 319.65625 C 147.2061 322.71188 146.58236 329.65638 145.78125 335.0625 C 143.91404 347.66296 143.88777 351.75634 145.59375 360.90625 C 146.67293 366.69477 146.71075 369.59967 145.6875 373.8125 C 144.57706 378.38437 144.67749 380.57337 146.34375 387.59375 C 147.59265 392.8557 148.05516 397.48634 147.59375 400.125 C 147.19115 402.42737 147.43509 406.52228 148.15625 409.21875 C 150.08479 416.42973 148.3272 420.55491 141.90625 423.90625 C 139.18044 425.32896 136.39704 426.5 135.71875 426.5 C 134.01494 426.5 132.2797 422.74843 132.25 418.96875 C 132.23639 417.23649 131.22575 414.143 130 412.09375 C 128.26825 409.19854 127.78125 406.5012 127.78125 400.03125 C 127.78125 395.45176 127.25044 390.55405 126.59375 389.125 C 125.67537 387.12643 125.80886 385.42919 127.21875 381.75 C 128.22688 379.11925 128.74665 376.58118 128.375 376.125 C 126.74395 374.12295 126.67854 334.834 128.28125 323.71875 C 130.19706 310.43208 129.396 299.33983 126.34375 296.78125 C 123.97136 294.79258 123.89297 293.14474 126.0625 290.96875 C 127.05332 289.97498 127.7286 287.37918 127.75 284.46875 C 127.7697 281.79629 128.33937 278.51087 129.03125 277.1875 C 129.81609 275.68632 130.37894 266.59817 130.53125 253 C 130.6655 241.01252 131.20256 230.45766 131.71875 229.5625 C 132.27207 228.60292 132.07481 226.3472 131.25 224.03125 C 128.65649 216.74913 127.8143 206.09275 129.0625 196.4375 C 129.79505 190.77093 129.8753 186.29412 129.25 184.84375 C 128.65212 183.45723 128.62173 178.41948 129.1875 172.65625 C 130.27784 161.54947 130.3657 159.77203 130.0625 155.5625 C 129.94398 153.91716 130.28913 144.01279 130.8125 133.5625 C 131.75857 114.67205 132.02709 111.9341 137.5625 111.65625 z M 177.3125 150.71875 C 178.84811 150.53371 179.92356 152.26149 180.875 156.125 C 181.5978 159.06003 181.40392 162.22742 180.21875 167.09375 C 179.02101 172.01169 178.72876 177.04715 179.1875 185.03125 C 180.1236 201.32504 180.12324 202.86312 179.125 214.09375 C 178.37433 222.53898 178.55076 225.32527 180.09375 229.78125 C 181.73638 234.52502 181.80288 236.41399 180.625 245.15625 C 179.88594 250.64153 179.33725 255.90355 179.40625 256.84375 C 179.47525 257.78394 179.98503 269.88882 180.53125 283.75 C 181.30984 303.5084 181.19369 310.89192 180 317.9375 C 179.16259 322.88021 178.5073 327.31115 178.5625 327.78125 C 179.81435 338.42902 179.5641 345.91881 177.78125 350.21875 C 175.10905 356.66366 175.40937 367.82751 178.875 391.03125 C 180.66979 403.04807 179.60054 416.7613 176.5625 420.71875 C 175.38795 422.24877 173.32748 423.63455 172 423.78125 C 169.96697 424.00592 169.32157 423.33764 167.84375 419.5625 C 165.61901 413.87935 165.64495 412.84117 168.0625 410.25 C 169.80403 408.38341 170.00929 406.14811 169.78125 391.125 C 169.63925 381.77017 168.95237 371.94515 168.28125 369.3125 C 167.32015 365.54236 167.46772 362.2589 168.9375 353.84375 C 169.96383 347.96754 171.14371 340.40044 171.5625 337.03125 C 172.05977 333.03066 173.01455 330.33802 174.3125 329.25 C 176.2306 327.64214 176.17562 327.47048 172.21875 324.46875 C 169.85141 322.67285 168.36202 320.86148 168.71875 320.15625 C 170.59435 316.44835 172.24286 303.29724 172.0625 293.59375 C 171.86913 283.19116 171.81871 256.67274 171.9375 240.1875 C 171.9663 236.19167 171.61453 227.47686 171.15625 220.84375 C 170.55177 212.09445 170.6829 207.90293 171.6875 205.59375 C 172.78609 203.06855 172.77745 201.05003 171.65625 195.8125 C 170.47446 190.29195 170.53472 187.19678 172 176.875 C 172.96377 170.08597 173.50305 162.23249 173.1875 159.40625 C 172.70685 155.10126 172.98823 153.90653 174.90625 152.125 C 175.82525 151.2714 176.61449 150.80286 177.3125 150.71875 z M 532.46875 272.75 C 533.17434 272.71817 534.24028 272.8017 535.875 273 C 543.22855 273.89204 550.10977 276.5397 551.625 279.0625 C 552.72797 280.89892 552.672 281.45622 551.34375 282.09375 C 548.65461 283.38447 542.1116 282.94098 537.65625 281.15625 C 533.1226 279.34017 531.125 277.26179 531.125 274.3125 C 531.125 273.23496 531.29277 272.80306 532.46875 272.75 z M 66.5625 412.84375 C 74.810596 412.84375 76.029982 413.04157 77.125 414.59375 C 77.805667 415.55857 78.194095 416.90039 78 417.59375 C 77.697721 418.67353 77.250757 418.65597 74.96875 417.4375 C 72.827004 416.29392 70.743815 416.11758 64.28125 416.53125 C 55.042169 417.12262 51.438442 416.17323 55.03125 414.09375 C 56.555615 413.21145 60.065178 412.84375 66.5625 412.84375 z "
     id="path3732" />
  <g
     id="g3761-9-6-1"
     transform="matrix(0.21121967,0,0,-0.1602342,184.95433,561.42969)"
     style="fill:#717171;fill-opacity:1;stroke:none">
    <g
       id="g4664"
       transform="translate(553.61061,389.35252)">
      <path
         sodipodi:nodetypes="ssssssssssssssssssssssssssssssscsccssscssssscccssssssssssssssscssssscsssssscssssssscssssssssssssssssssssssssssssssssssssssssssssssssssssssscccsssssssssccssssscsssssscsscssssssssssssscsssscsssssscssssscssssscccssssssscssssssssssssssssssscssssscssssssssssssssscssssssssssssssssssssssscsssc"
         inkscape:connector-curvature="0"
         id="path3726-6"
         d="m 933.06213,877.56841 c 0,-3.25935 -0.54926,-5.36275 -1.63016,-6.24277 -1.20305,-0.97939 -1.45437,-2.26596 -0.95922,-4.91045 0.36902,-1.97087 1.02295,-8.57203 1.45317,-14.66927 0.43023,-6.09725 1.32459,-12.36361 1.98746,-13.92521 0.73955,-1.7422 0.95413,-4.93504 0.55538,-8.26313 -0.58768,-4.90491 -0.38438,-5.73343 2.12447,-8.6582 1.80523,-2.1045 2.58864,-3.97056 2.24274,-5.34229 -0.29236,-1.15939 -0.63549,-6.50783 -0.76249,-11.8855 -0.12701,-5.37766 -0.63337,-9.53356 -1.12524,-9.23535 -1.44065,0.87337 -5.94088,-2.53625 -5.94088,-4.50128 0,-0.98987 0.67878,-2.68007 1.50841,-3.756 2.09922,-2.7226 1.93456,-4.47579 -0.42039,-4.47579 -3.13233,0 -3.32283,-1.53076 -0.55508,-4.46036 1.72722,-1.82817 2.54922,-3.86173 2.54922,-6.30657 0,-1.98468 0.99743,-5.19153 2.2165,-7.12642 1.223,-1.94125 2.15967,-5.00086 2.08972,-6.8263 -0.0878,-2.29247 0.82789,-4.48657 2.98279,-7.14648 1.86024,-2.29619 2.91001,-4.58694 2.61286,-5.70158 -0.27319,-1.02484 0.16107,-3.40761 0.96502,-5.29503 0.80396,-1.88753 1.46175,-4.71625 1.46175,-6.28601 0,-1.56987 0.43149,-3.28506 0.95888,-3.81164 0.52738,-0.52658 1.10528,-8.1434 1.28423,-16.92626 0.17894,-8.78276 0.66219,-16.17313 1.07389,-16.42296 0.41168,-0.24994 2.02982,0.4521 3.59585,1.55988 1.56603,1.10789 4.18563,2.32804 5.82133,2.71152 2.80241,0.65709 2.93533,0.54613 2.30342,-1.92361 -2.08137,-8.13484 -4.48827,-10.67038 -8.44872,-8.90027 -2.88866,1.29111 -4.94201,0.57566 -8.06581,-2.81028 -1.42612,-1.54587 -1.65789,-2.43668 -0.84212,-3.23688 1.42007,-1.39299 10.64428,0.62938 15.1418,3.31993 1.70596,1.02051 4.14197,1.85719 5.41336,1.85921 3.56645,0.0101 3.14635,-5.09942 -0.7137,-8.67321 l -3.02532,-2.80101 c 3.80369,-1.80982 9.85524,-9.21632 10.13763,-14.46791 0.0171,-1.71046 -1.13137,-2.79446 -4.70714,-4.44323 -3.81093,-1.75722 -5.12075,-3.07584 -6.74277,-6.7877 -2.94052,-6.72924 -6.72477,-8.66746 -5.62999,-2.88354 l 0.61997,3.27538 -2.60042,-3.02343 c -6.07476,-7.06303 -6.86015,-11.58981 -2.01076,-11.58981 2.02141,0 2.60071,-0.51126 2.60071,-2.29529 0,-1.26248 -0.73731,-3.32789 -1.63845,-4.58997 -1.14912,-1.60927 -1.39635,-3.10596 -0.82783,-5.01133 1.28001,-4.28984 1.11126,-4.65719 -2.15696,-4.69589 -2.8847,-0.0343 -3.1024,-0.31081 -3.39808,-4.31957 3.46466,-14.55317 -2.52592,-12.03627 5.94957,-22.61363 1.49266,-1.86032 2.41932,-4.16971 2.23295,-5.56493 -0.28542,-2.13655 -0.0263,-2.31292 2.48796,-1.69392 2.59635,0.63925 2.7491,0.51005 2.03939,-1.72507 -0.42195,-1.3288 -1.01336,-5.04802 -1.31426,-8.26484 -0.47796,-5.1099 -0.25319,-6.1557 1.77912,-8.27785 2.16632,-2.26193 2.23841,-2.73661 1.04873,-6.9047 -0.97009,-3.39884 -1.00474,-5.72335 -0.14398,-9.66046 2.1254,-9.72154 1.50615,-15.45335 -2.46235,-22.79131 -2.35666,-4.35757 -3.59585,-8.01924 -3.59585,-10.62524 0,-2.41521 -1.21002,-6.32763 -3.08216,-9.96562 -2.03333,-3.95132 -3.08216,-7.49931 -3.08216,-10.4264 0,-2.85643 -0.91315,-6.0396 -2.56361,-8.93634 -1.40999,-2.47458 -3.07474,-6.95349 -3.69948,-9.95303 -1.096,-5.26238 -1.71353,-7.89669 -3.87716,-16.53957 -0.55503,-2.21718 -2.42257,-9.70016 -4.15007,-16.62885 -1.72748,-6.92869 -3.84211,-15.07744 -4.69916,-18.10833 -0.85699,-3.03078 -1.55822,-7.70913 -1.55822,-10.39626 0,-2.68712 -0.41267,-5.64947 -0.91703,-6.58311 -1.88318,-3.48571 -4.30572,-20.99701 -3.27327,-23.66085 0.72743,-1.87684 0.63367,-2.86732 -0.347,-3.6657 -0.73907,-0.60167 -3.5256,-4.71847 -6.19228,-9.14839 l -4.84853,-8.05432 -6.85454,0 c -6.28478,0 -7.09635,0.25125 -9.7636,3.02343 -2.24239,2.33046 -3.80573,3.02343 -6.82161,3.02343 -2.6729,0 -4.11668,-0.52184 -4.55683,-1.64706 -1.08573,-2.77541 0.4872,-8.13756 3.09093,-10.53706 3.00616,-2.77026 3.1902,-5.5368 0.41568,-6.24852 -2.67435,-0.68601 -2.67276,-4.24428 0.004,-8.55065 2.4449,-3.93359 2.6078,-6.58211 0.50985,-8.29004 -1.55947,-1.26964 -2.1327,-4.03124 -0.83675,-4.03124 0.38737,0 1.74012,0.95449 3.0061,2.12113 3.21493,2.96276 4.50866,1.65846 4.50866,-4.54532 0,-3.08752 0.7542,-6.77137 1.79324,-8.75887 1.34841,-2.57939 1.82542,-6.13554 1.92304,-14.33649 0.133,-11.1746 0.80825,-13.23274 4.13684,-12.60881 1.83175,0.34336 3.60346,4.32602 5.00742,11.25622 0.65236,3.22147 4.76074,7.72376 7.04771,7.72376 0.82993,0 2.9314,-1.1741 4.66994,-2.60912 2.70208,-2.23039 3.16099,-3.29514 3.16099,-7.33434 0,-7.25139 4.55785,-12.01702 7.07702,-7.39953 0.6829,1.25169 0.3789,3.9495 -0.99123,8.79646 -2.49219,8.81632 -2.47518,11.25864 0.10731,15.41374 1.65785,2.66747 2.63879,3.27629 4.87136,3.02343 2.19892,-0.24893 2.90787,-0.95913 3.322,-3.32759 0.33135,-1.89508 1.24377,-3.14668 2.46175,-3.37676 3.09615,-0.58494 1.69871,8.19379 -1.88912,11.86736 -2.09095,2.14089 -2.58486,3.41808 -2.08198,5.38351 0.5074,1.98307 0.16509,2.83628 -1.48566,3.7029 -3.26435,1.71368 -2.84073,6.97384 0.93719,11.63718 1.69519,2.09241 3.08216,4.64378 3.08216,5.66963 0,1.02595 1.65589,5.78926 3.67975,10.58522 2.02386,4.79597 4.28809,11.57208 5.03161,15.05799 0.74352,3.48591 1.65386,6.81743 2.023,7.40337 1.26777,2.01219 6.80643,17.72515 8.37797,23.76798 0.86493,3.32577 2.69754,7.73776 4.07247,9.80447 1.37493,2.06672 2.50485,4.33429 2.51094,5.03905 0.0199,2.30466 7.93122,17.99524 10.34318,20.51366 1.64515,1.71791 2.57289,4.27745 3.08022,8.49805 0.65741,5.46938 1.43746,6.96749 8.25914,15.86171 4.14322,5.40207 14.45784,16.74758 22.92134,25.21227 12.3194,12.32108 15.8386,16.47648 17.6469,20.83637 6.2514,15.0727 20.1372,37.93032 27.2777,44.90194 1.987,1.94004 8.587,7.83572 14.6665,13.10153 6.0797,5.2658 11.4769,10.34526 11.9938,11.28787 0.517,0.9425 4.3615,4.23965 8.5433,7.32697 7.4049,5.46687 9.8445,8.89987 9.8445,13.85265 0,1.06283 1.0862,3.37616 2.4135,5.14063 1.3275,1.76448 3.2138,5.24898 4.1918,7.74331 0.9779,2.49432 2.675,5.48097 3.7712,6.63703 1.7793,1.87654 8.7674,16.71059 9.692,20.57382 0.199,0.83145 1.5923,6.43356 3.0963,12.44917 1.5902,6.36039 2.4846,12.16336 2.1373,13.86686 -0.3285,1.61118 0.1286,5.70904 1.0159,9.10616 0.8992,3.44318 1.3497,7.78765 1.0181,9.81667 -0.3273,2.00191 -1.0255,6.58775 -1.5516,10.19067 -1.39,9.52007 -2.8423,16.19852 -5.7797,26.57795 -3.1729,11.21118 -4.5763,30.69939 -2.594,36.01962 0.6996,1.87765 1.8828,5.90828 2.6293,8.95691 0.7464,3.04862 1.8363,7.35408 2.4218,9.56774 0.6741,2.54885 0.7253,5.50959 0.1396,8.07366 -1.068,4.67472 1.0291,51.99489 2.6459,59.70493 0.4191,1.99839 0.7241,2.11691 2.5949,1.00781 1.8939,-1.1228 2.4965,-0.83345 5.6524,2.71383 4.0784,4.58423 4.0242,6.06702 -0.2267,6.20831 -6.9275,0.23019 -10.6954,5.76921 -4.758,6.9947 4.6984,0.96972 5.8207,1.987 7.1461,6.4775 0.6984,2.36623 2.0925,4.94219 3.0978,5.72436 1.6937,1.31751 1.6411,1.40125 -0.7155,1.14043 -1.9714,-0.21829 -2.9228,-1.29161 -4.2303,-4.77228 -0.9277,-2.46984 -2.2259,-4.66686 -2.8849,-4.88233 -2.0785,-0.67967 -4.2063,1.93429 -4.8653,5.97651 l -0.6358,3.90043 -8.2669,0 -8.2669,0 2.2339,-2.33258 c 1.2286,-1.28284 2.2338,-3.29695 2.2338,-4.47568 0,-1.17874 0.4909,-2.44071 1.0908,-2.80443 0.5999,-0.36362 1.5302,-1.79481 2.0672,-3.18035 0.537,-1.38553 1.8954,-2.75495 3.0188,-3.04308 2.6983,-0.69226 2.5921,-2.82035 -0.238,-4.76482 -1.8473,-1.26924 -2.3132,-2.63673 -2.4535,-7.2005 -0.1939,-6.31342 -1.4118,-8.41097 -3.4706,-5.97752 -1.211,1.43129 -1.514,1.42242 -3.2227,-0.0947 -1.7585,-1.5611 -1.9309,-1.55979 -2.5483,0.0181 -0.3642,0.93111 -0.3991,3.28415 -0.077,5.22892 0.8238,4.97928 -1.6312,5.64343 -5.788,1.56583 -2.883,-2.82811 -3.104,-3.45537 -2.1194,-6.0144 0.9488,-2.46571 0.752,-3.25311 -1.4377,-5.75026 -2.2635,-2.58141 -2.4712,-3.51262 -1.9252,-8.63572 0.3365,-3.15838 1.145,-6.89019 1.7966,-8.29317 2.4742,-5.32697 -2.3817,-11.03692 -5.0812,-5.97479 -1.8044,3.38351 -4.2687,16.31704 -4.2687,22.4031 0,3.37273 -0.7243,7.81828 -1.6096,9.87915 -1.5129,3.52209 -1.6824,3.62519 -2.8253,1.71892 -0.6686,-1.11534 -3.0216,-4.44262 -5.2289,-7.39399 -3.3689,-4.50481 -4.4257,-5.28869 -6.5841,-4.88395 -1.998,0.3747 -3.6832,-0.53837 -7.5608,-4.09624 -2.7445,-2.51812 -5.2943,-4.27967 -5.6667,-3.91454 -0.3722,0.36523 0.6439,4.56286 2.2581,9.32819 2.1772,6.4269 3.5406,8.93483 5.2802,9.71236 l 2.3451,1.04812 -2.0189,2.78135 c -1.1105,1.52966 -2.019,3.54417 -2.019,4.47669 0,0.93243 2.5833,4.16941 5.7407,7.19324 4.6986,4.49987 5.517,5.76226 4.5085,6.95429 -0.6956,0.82217 -0.95,2.55924 -0.5842,3.98901 0.6036,2.35888 0.3905,2.53263 -3.1064,2.53263 -2.7474,0 -4.4354,-0.72068 -6.293,-2.68682 -2.4582,-2.60196 -2.4862,-2.79395 -0.8882,-6.08102 2.1606,-4.44454 2.0885,-7.0848 -0.2129,-7.80136 -1.0245,-0.31897 -3.3267,-2.61708 -5.1158,-5.10687 -3.4176,-4.75625 -6.3759,-5.74683 -9.7573,-3.26722 -2.1176,1.55294 -2.4331,3.90577 -1.347,10.04645 0.7775,4.39627 0.6019,5.05185 -2.3254,8.67734 -1.7416,2.15702 -2.8816,4.20136 -2.5333,4.54301 0.3483,0.34165 -0.1575,0.91882 -1.124,1.28264 -0.9663,0.36382 -2.2809,0.14774 -2.9209,-0.48022 -0.8668,-0.85029 -0.8535,-1.14155 0.052,-1.14155 0.8347,0 0.6615,-1.14114 -0.5523,-3.63799 l -1.7685,-3.63799 -5.4066,0.62333 c -4.0933,0.47196 -5.4065,0.30305 -5.4065,-0.69559 0,-0.72542 0.4168,-1.74976 0.9262,-2.27634 0.5092,-0.52658 1.4652,-6.55671 2.1242,-13.40034 1.0889,-11.30793 1.039,-12.61556 -0.5479,-14.33559 -1.5064,-1.63285 -1.5664,-2.31826 -0.4372,-4.99238 1.0635,-2.51852 1.0599,-3.55606 -0.019,-5.53338 -0.9562,-1.75248 -1.14,-4.83023 -0.6568,-10.99692 0.6647,-8.48263 0.642,-8.59581 -2.414,-12.01006 -1.697,-1.89579 -3.0853,-3.7807 -3.0853,-4.18856 0,-0.40796 -1.4061,-2.31272 -3.1246,-4.2328 -2.0592,-2.30041 -2.9184,-4.12867 -2.5196,-5.36092 0.3327,-1.02857 0,-2.83497 -0.728,-4.01431 -1.1722,-1.88541 -1.0422,-2.37823 1.0767,-4.08183 2.2964,-1.84651 2.3494,-2.1687 1.1264,-6.84958 -0.9908,-3.79248 -1.0132,-5.96411 -0.099,-9.52894 1.4754,-5.74774 1.5479,-33.44446 0.1178,-44.99234 -2.2089,-17.83652 -2.9393,-21.4469 -5.2709,-26.05662 l -2.3945,-4.73388 -7.19173,0 -7.19171,0 0.32257,-3.27538 c 0.36994,-3.75641 -0.56113,-4.06661 -4.07288,-1.35692 -1.36748,1.05518 -4.37458,2.41724 -6.68244,3.02686 -8.0939,2.13787 -11.95339,6.82196 -12.97911,15.75196 -0.32069,2.79204 -1.51775,7.78069 -2.66013,11.08591 -1.14238,3.30531 -2.56704,8.95751 -3.16589,12.56043 -0.59887,3.60292 -1.74108,8.81833 -2.53826,11.58981 -2.53322,8.80704 -3.66918,14.53251 -3.65202,18.40693 0.0156,3.53318 -3.00079,21.67234 -5.19543,31.2421 -0.54206,2.36372 -0.98557,6.08937 -0.98557,8.27924 0,3.84177 -2.02614,11.32838 -4.26843,15.77191 -0.65498,1.29796 -1.76676,1.97027 -2.81397,1.70159 -0.95216,-0.24419 -2.50976,0.3999 -3.46135,1.43129 -1.6323,1.76931 -1.5771,2.08647 0.97552,5.60574 2.36415,3.25935 2.55189,4.06137 1.48717,6.35363 -0.69732,1.50134 -0.93431,4.10955 -0.55405,6.09796 0.4817,2.51871 0.23102,3.80679 -0.91133,4.68248 -1.27766,0.97949 -1.44383,2.5428 -0.87824,8.26273 0.55508,5.6135 1.41164,8.13544 4.19307,12.34567 3.60345,5.45436 4.90105,6.19309 7.0963,4.0396 2.83728,-2.78317 4.41979,4.38135 1.73645,7.86142 -0.82962,1.07603 -1.52311,2.75001 -1.54108,3.72002 -0.071,3.82938 -2.69858,1.47453 -3.90256,-3.4974 -1.32696,-5.47966 -6.10345,-12.3756 -8.57203,-12.3756 -2.33283,0 -2.25298,4.33268 0.1347,7.30995 1.86646,2.32723 5.11551,8.64428 5.11551,9.94587 0,0.20942 -2.54278,0.38085 -5.65063,0.38085 l -5.65063,0 z m 102.70037,-50.91877 c 0.8567,-2.21032 0.4865,-12.28046 -0.5727,-15.58164 -0.3527,-1.09912 -0.7459,-1.12471 -1.9696,-0.12849 -1.1117,0.90511 -1.529,3.36507 -1.529,9.01576 0,4.27412 0.3083,8.07346 0.685,8.44302 1.2917,1.26712 2.449,0.66959 3.3863,-1.74865 z m 61.1678,-17.64644 c 3.5871,-0.53716 4.0891,-0.93434 3.9482,-3.12381 -0.2643,-4.10974 -2.3335,-11.03539 -4.0766,-13.64521 -1.3206,-1.97702 -1.4912,-3.96866 -0.9003,-10.51619 0.4814,-5.33515 0.3694,-8.07729 -0.3298,-8.07729 -2.25,0 -6.2997,10.62049 -7.3016,19.14838 -0.5534,4.71151 -1.3101,10.03464 -1.6816,11.82934 -1.0188,4.92235 0.024,6.68118 3.4165,5.76266 1.5486,-0.41935 4.6649,-1.03936 6.9252,-1.37788 z m -26.4038,-9.36102 c 0.678,-0.66515 1.2328,-2.38851 1.2328,-3.82967 0,-1.44117 0.4896,-3.10053 1.0879,-3.68748 1.6644,-1.63265 5.0764,-16.1185 5.0764,-21.5519 0,-2.65528 0.9039,-6.89624 2.0086,-9.42423 2.4131,-5.5223 5.1942,-18.19923 5.1545,-23.49497 -0.015,-2.10198 -1.4497,-7.67658 -3.1864,-12.38809 -1.7368,-4.71151 -4.2041,-11.51423 -5.4831,-15.11715 -2.4647,-6.9431 -5.6853,-9.55393 -5.6853,-4.60911 0,3.25069 -3.337,6.62473 -6.5521,6.62473 -3.2067,0 -4.3956,1.55334 -5.8155,7.59798 -0.6461,2.74981 -2.1729,8.401 -3.3931,12.55821 -1.9237,6.55399 -2.2081,9.96946 -2.1401,25.69915 0.082,19.10152 0.2296,19.92661 5.9288,33.25771 3.2747,7.65966 8.6151,11.45616 11.7666,8.36482 z m -29.0693,-7.86998 c 0.9868,-1.56634 -0.4797,-5.02998 -2.1298,-5.02998 -0.9504,0 -1.4718,1.071 -1.4718,3.02343 0,2.99632 2.2042,4.22433 3.6016,2.00655 z m -4.9481,-32.99669 c -0.2585,-0.97002 -0.47,-0.17637 -0.47,1.76366 0,1.94004 0.2115,2.73369 0.47,1.76367 0.2584,-0.97002 0.2584,-2.55732 0,-3.52733 z M 919.78725,328.9784 c 2.58316,-1.87342 3.40522,-2.03457 5.09533,-0.99925 1.62933,0.99814 2.01523,0.97335 2.01523,-0.1295 0,-2.17949 -3.73316,-4.89191 -6.23337,-4.52889 -2.68207,0.38941 -6.66096,5.17046 -5.64497,6.78306 0.94857,1.50557 1.23248,1.43855 4.76778,-1.12542 z m -39.40962,-4.43124 c -0.40679,-0.39899 -0.73961,-2.0392 -0.73961,-3.64484 0,-2.66939 0.27698,-2.89222 3.23539,-2.60348 3.51874,0.34346 6.13106,3.13489 4.44691,4.75192 -1.4191,1.36246 -6.05959,2.36271 -6.94269,1.4964 z"
         style="fill:#000000"
         transform="matrix(5.334205,0,0,-5.334205,-5138.8388,4633.3075)" />
      <g
         style="fill:#717171;fill-opacity:1;stroke:none"
         transform="translate(-1415.1165,-86.516622)"
         id="g3761-9-6">
        <path
           sodipodi:nodetypes="ccccccscsccccccscccsccccccccccccscccccccscccscccsccsccsccccccccscccccsccscccscsccccccccccscccsccscscccsccscccccscscc"
           style="fill:#717171;fill-opacity:1"
           inkscape:connector-curvature="0"
           d="m 1021.6765,3183.0658 c -4,-6 -2,-16 3,-23 12,-15 10,-42 -6,-81 -7,-16 -15,-47 -18,-70 -2.00003,-22 -13.00003,-50 -23,-61 -23.63895,-72.581 -31.2877,-89.8929 -24,-115 -9,-14 -17,-35 -17,-47 0,-30 39,-31 65,-3 11,12 31,20 51,20 28,0 36,-7 63,-50 31.0148,-94.3722 1.8561,-5.603 45,-180 8,-30 12,-58 9,-63 -2,-4 2,-31 11,-60 26,-89 40,-141 41,-157 0,-8 3,-19 6,-25 4,-5 10,-30 14,-55 4,-25 15,-61 24,-80 10,-19 16,-43 13,-53 -2,-10 6,-34 17,-53 12,-19 21,-47 21,-62 0,-15 9,-40 20,-57 17,-25 19,-40 14,-98 -4,-45 -2,-72 6,-82 9,-11 7,-16 -10,-25 -21,-11 -22,-28 -3,-93 4,-15 1,-18 -15,-13 -17,6 -19,3 -15,-14 3,-13 0,-20 -8,-20 12.6461,-131.4796 -19.2105,-85.4068 -1.3018,-209 6,-14 -0.7544,-42.7545 -1.7544,-49.7545 -35.089,-168.7868 -36.7945,-353.49335 -5.9438,-381.24545 10,0 0,-92 -12,-107 -5,-7 -7,-17 -3,-23 4,-6 2,-16 -3,-23 -6,-7 -12,-35 -15,-63 -30.6109,-194.57104 -25.9124,-207.57281 -27,-306 -4,-21 -4,-41 1,-44 4,-2 6,-11 3,-18 -5,-14 22,-42 29,-29 2,4 7,25 11,45 4,21 11,38 17,38 6,0 8,4 4,9 -8,15 41,293 81,461 26,103.99997 39,126.99997 91,149.99995 56,24 53,24 53,0 0,-17.99998 5,-19.99998 38,-13.99998 34,4.99998 39,2.99998 51,-22 7,-15 17,-65.99997 22,-112.99997 12,-98 8,-361 -4,-361 -15,0 5,-64 30,-99 27,-35 31,-64 36,-249 1,-53 6,-92.000002 12,-92.000002 5,0 2,-6.999997 -7,-13.999997 -24,-18 -12,-26 17,-12 14,6 25,18 25,26.999997 0,8 6,21 13,27 8.4832,254.050252 12.8806,440.117602 18.7929,81.245552 l 18.2071,-23.24555 45.8107,2.79289 c -12.8059,71.72363 12.0344,-46.09316 42.2633,7.04132 11,22 -38.074,203.0149 -38.074,210.0149 65.3916,122.36948 -19.4814,311.30704 21,465.15089 17,64 25,78 42,81 12,2 27,14 34,28 l 12,23.99997 11,-28.99997 c 6,-17 18,-48 26,-70 9,-22 20,-49 24,-60 8,-23 -2,-104 -19,-148 -6,-16 -11,-42 -11,-59 0,-37 -31,-131 -67,-206 -20.2717,-50.49422 -26.2277,-97.93328 -11,-112 12,-11 18,-20 13,-20 -16,0 57.9616,-7.49111 73.9616,-8.49111 -14.4569,79.64985 3.2074,106.43641 17.9822,108.49111 -2,16 14.0562,38 18.0562,47 4,10 8,41 10,70 2,29 10,62 19,75 16,22 -3.5207,14.72888 35.358,-15.09467 29.9864,-23.00227 12.4925,-66.75718 15.6036,-70.90533 14.2175,-160.14772 23.9472,-275.86214 31.0768,-340 1,-10 39.9616,-26 51.9616,-34.000002 l 23,-15 -7,74.000002 c -3,41 -7,142 -9,224 -1,86 -8,169 -16,195 -17,59 -15,180 4,255 9,33 21,81 28,107 18,71.99995 -7,289.99995 -40,355.99995 -5,9 -16,33 -25,52 -9,19 -29,58 -45,85 -16,28 -30,60 -30,73 -1,15 -16,33 -46,54 -25,18 -45,35 -45,39 0,4 -34,36 -76,71 -43,36 -94,91 -119,128 -41,62 -105,185 -105,202 0,4 -33,40 -74,80 -113,112 -176,195 -176,234 0,18 -5,36 -11,40 -20,12 -95,187 -133,309 -20,66 -44,133 -52,148 -8,16 -14,36 -14,45 0,9 -9,28 -20,42 -24,30 -25,44 -5,60 8,7 12,17 9,22 -3,5 1,17 9,26 19,22 28,60 15,68 -5,3 -12,-3 -15,-15 -6,-25 -25,-27 -43,-6 -9,10 -10,29 -6,58 12,72 12,82 -4,82 -9,0 -15,-10 -15,-26 -1,-32 -30,-79 -49,-79 -20,0 -32,19 -45,68 -12,41 -24,52 -36,32 z"
           id="path3763-8-6" />
      </g>
      <path
         sodipodi:nodetypes="ccccccscsccccccscccsccccccccccccscccccccscccscccsccsccsccccccccscccccsccscccscsccccccccccscccsccscscccsccscccccscscc"
         style="fill:#b26e3d;fill-opacity:1"
         inkscape:connector-curvature="0"
         d="m -420.14455,3103.9786 c -4,-6 -2,-16 3,-23 12,-15 10,-42 -6,-81 -7,-16 -15,-47 -18,-70 -2.00003,-22 -13.00003,-50 -23,-61 -23.63895,-72.581 -31.2877,-89.8929 -24,-115 -9,-14 -17,-35 -17,-47 0,-30 39,-31 65,-3 11,12 31,20 51,20 28,0 36,-7 63,-50 31.0148,-94.3722 1.8561,-5.603 45,-180 8,-30 12,-58 9,-63 -2,-4 2,-31 11,-60 26,-89 40,-141 41,-157 0,-8 3,-19 6,-25 4,-5 10,-30 14,-55 4,-25 15,-61 24,-80 10,-19 16,-43 13,-53 -2,-10 6,-34 17,-53 12,-19 21,-47 21,-62 0,-15 9,-40 20,-57 17,-25 19,-40 14,-98 -4,-45 -2,-72 6,-82 9,-11 7,-16 -10,-25 -21,-11 -22,-28 -3,-93 4,-15 1,-18 -15,-13 -17,6 -19,3 -15,-14 3,-13 0,-20 -8,-20 12.6461,-131.4796 -19.2105,-85.4068 -1.3018,-209 6,-14 -0.7544,-42.7545 -1.7544,-49.7545 -35.089,-168.7868 -36.7945,-353.49338 -5.9438,-381.24548 10,0 0,-92 -12,-107 -5,-7 -7,-17 -3,-23 4,-6 2,-16 -3,-23 -6,-7 -12,-35 -15,-63 -30.6109,-194.57104 -25.9124,-207.57281 -27,-306 -4,-21 -4,-41 1,-44 4,-2 6,-11 3,-18 -5,-14 22,-42 29,-29 2,4 7,25 11,45 4,21 11,38 17,38 6,0 8,4 4,9 -8,15 41,293 81,461 26,103.99997 39,126.99997 91,149.99995 56,24 53,24 53,0 0,-17.99998 5,-19.99998 38,-13.99998 34,4.99998 39,2.99998 51,-22 7,-15 17,-65.99997 22,-112.99997 12,-98 8,-361 -4,-361 -15,0 5,-64 30,-99 27,-35 31,-64 36,-249.000001 1,-53 6,-92.000002 12,-92.000002 5,0 2,-6.999997 -7,-13.999997 -24,-18 -12,-26 17,-12 14,6 25,18 25,26.999997 0,8.0000004 6,21.0000004 13,27 8.4832,254.050253 12.8806,440.117603 18.7929,81.245552 l 18.2071,-23.24555 45.8107,2.79289 c -12.8059,71.723631 12.0344,-46.09316 42.2633,7.04132 11,22.000001 -38.074,203.014901 -38.074,210.014901 65.3916,122.36948 -19.4814,311.30704 21,465.15089 17,64 25,78 42,81 12,2 27,14 34,28 l 12,23.99997 11,-28.99997 c 6,-17 18,-48 26,-70 9,-22 20,-49 24,-60 8,-23 -2,-104 -19,-148 -6,-16 -11,-42 -11,-59 0,-37 -31,-131 -67,-206 -20.2717,-50.49422 -26.2277,-97.93328 -11,-112 12,-11 18,-20 13,-20 -16,0 57.9616,-7.49111 73.9616,-8.49111 -14.4569,79.64985 3.2074,106.43641 17.9822,108.49111 -2,16 14.0562,38 18.0562,47 4,10 8,41 10,70 2,29 10,62 19,75 16,22 -3.5207,14.72888 35.358,-15.09467 29.9864,-23.00227 12.4925,-66.75718 15.6036,-70.90533 14.2175,-160.14772 23.9472,-275.86214 31.0768,-340.000001 1,-10 39.9616,-26 51.9616,-34.000002 l 23,-14.9999996 -7,74.0000016 c -3,41.000001 -7,142.000001 -9,224.000001 -1,86 -8,169 -16,195 -17,59 -15,180 4,255 9,33 21,81 28,107 18,71.99995 -7,289.99998 -40,355.99998 -5,9 -16,33 -25,52 -9,19 -29,58 -45,85 -16,28 -30,60 -30,73 -1,15 -16,33 -46,54 -25,18 -45,35 -45,39 0,4 -34,36 -76,71 -43,36 -94,91 -119,128 -41,62 -105,185 -105,202 0,4 -33,40 -74,80 -113,112 -176.0000002,195 -176.0000002,234 0,18 -4.9999998,36 -10.9999998,40 -20,12 -95,187 -133,309 -20,66 -44,133 -52,148 -8,16 -14,36 -14,45 0,9 -9,28 -20,42 -24,30 -25,44 -5,60 8,7 12,17 9,22 -3,5 1,17 9,26 19,22 28,60 15,68 -5,3 -12,-3 -15,-15 -6,-25 -25,-27 -43,-6 -9,10 -10,29 -6,58 12,72 12,82 -4,82 -9,0 -15,-10 -15,-26 -1,-32 -30,-79 -49,-79 -20,0 -32,19 -45,68 -12,41 -24,52 -36,32 z"
         id="path3763-8-6-1" />
    </g>
  </g>
  <g
     id="g4670"
     transform="matrix(1.126689,0,0,0.85472207,1088.6841,-193.65712)">
    <g
       id="g4688"
       transform="matrix(1.0389082,0,0,1.0122414,-716.91647,-1741.4071)">
      <path
         inkscape:connector-curvature="0"
         id="path4674"
         d="m 158.35756,2503.2552 c -0.70747,-2.6668 -2.39584,-12.782 -3.71384,-22.25 -0.65079,-4.675 -1.86351,-9.5825 -2.69494,-10.9055 -0.83143,-1.3231 -2.15005,-5.142 -2.93027,-8.4865 -0.78022,-3.3445 -2.52398,-7.9671 -3.87503,-10.2725 -1.35104,-2.3054 -2.45644,-5.2489 -2.45644,-6.5411 0,-1.2921 -0.71494,-3.3701 -1.58875,-4.6176 -1.13606,-1.622 -1.6347,-4.8909 -1.75,-11.4726 -0.19393,-11.0695 -1.47186,-11.8821 -5.76027,-3.6626 -2.12462,4.0723 -3.06459,7.5921 -3.54493,13.2746 -0.35952,4.2531 -1.42814,10.0844 -2.37472,12.9584 -1.48567,4.5108 -2.04655,5.191 -4.10118,4.974 -1.30908,-0.1383 -3.73015,-0.2675 -5.38015,-0.287 -6.79066,-0.081 -8.13095,-2.0727 -4.5,-6.6887 1.1,-1.3985 2,-3.9669 2,-5.7078 0,-1.7408 0.40716,-3.5926 0.9048,-4.1151 1.53481,-1.6115 5.35923,-18.3328 4.73621,-20.7079 -0.34742,-1.3245 0.83098,-6.4408 2.87931,-12.5013 5.96919,-17.6613 5.48802,-27.9866 -1.98603,-42.6178 -1.37023,-2.6824 -2.78088,-6.4205 -3.13477,-8.3069 -0.37764,-2.013 -1.62577,-4.0735 -3.02148,-4.988 -1.69973,-1.1137 -2.37804,-2.4887 -2.37804,-4.8207 0,-3.71 -2.42927,-6.4781 -4.16332,-4.7441 -0.77141,0.7714 -0.61696,2.4333 0.54238,5.8358 2.75457,8.0842 1.95536,10.8172 -3.37906,11.5551 -2.95129,0.4082 -5.50118,4.9728 -6.92685,12.3998 -0.52219,2.7203 -1.63719,6.3122 -2.47778,7.982 -0.84059,1.6698 -2.08437,6.2785 -2.76396,10.2416 -1.78669,10.4192 0.19715,33.5959 3.66411,42.8067 3.10737,8.2556 3.1077,9.3742 0.004,15.2036 -1.375,2.5829 -2.5,5.4307 -2.5,6.3284 0,3.016 -3.05712,10.3329 -5.3771,12.8695 -1.51458,1.6561 -3.43317,6.7807 -5.62115,15.0142 -4.10125,15.4333 -4.46255,16.2503 -8.14985,18.4284 l -2.97768,1.759 0.69452,-3.8437 c 0.82874,-4.5839 2.13753,-7.3437 3.4831,-7.3437 1.44684,0 3.75616,-5.8208 4.45402,-11.2267 0.33559,-2.5997 1.03418,-4.9887 1.5524,-5.309 1.18464,-0.7322 1.23145,-4.7492 0.0701,-6.0143 -0.47968,-0.5225 -1.14958,-2.7974 -1.48867,-5.0553 -0.49951,-3.326 -0.23907,-4.4468 1.37214,-5.9049 2.29184,-2.0741 2.48734,-3.7184 0.76922,-6.4696 -1.04526,-1.6737 -0.81677,-2.3729 1.59953,-4.895 2.38677,-2.4913 2.71052,-3.4547 2.11158,-6.2838 -0.38908,-1.8378 -1.61335,-4.8327 -2.72062,-6.6554 -1.58029,-2.6013 -1.9021,-4.4291 -1.49651,-8.5 0.39243,-3.9388 0.12095,-5.6324 -1.12892,-7.0422 -1.57581,-1.7774 -1.47595,-1.8411 2.35439,-1.5 3.68963,0.3286 4,0.1633 4,-2.1301 0,-1.6994 -0.633,-2.6005 -2,-2.8471 -3.68467,-0.6646 -3.99011,-2.0456 -1.11594,-5.0456 3.4206,-3.5703 3.39434,-8.4389 -0.0482,-8.9293 -1.4857,-0.2116 -2.3746,0.3549 -2.83557,1.8073 -0.3693,1.1636 -1.702,2.5074 -2.96154,2.9863 -1.72907,0.6574 -2.44406,1.9294 -2.9186,5.1927 -0.69744,4.796 0.67673,18.8497 2.24638,22.9738 1.22424,3.2166 0.18763,11.1884 -2.90538,22.3431 -1.29364,4.6654 -2.32057,11.5368 -2.4659,16.5 -0.39674,13.5488 -0.44461,14.0051 -1.46959,14.0051 -0.53588,0 -1.68273,-1.3699 -2.54857,-3.0443 -1.24258,-2.4028 -1.43622,-4.7731 -0.91907,-11.25 0.64701,-8.1032 0.6164,-8.2542 -2.45143,-12.0932 -1.70863,-2.1381 -3.10661,-4.4489 -3.10661,-5.135 0,-0.6861 -1.125,-1.9846 -2.5,-2.8855 -3.49686,-2.2913 -3.24634,-4.592 0.5,-4.592 3.2553,0 4.07982,-1.7234 1.25,-2.6127 -0.9625,-0.3025 -2.875,-1.0054 -4.25,-1.5621 l -2.5,-1.0121 2.87748,-2.2958 c 2.00158,-1.5969 2.61193,-2.71 2.00508,-3.6565 -0.47982,-0.7484 -0.90008,-13.5108 -0.93391,-28.3608 -0.069,-30.2704 -1.21188,-44.2038 -4.34245,-52.9389 -1.53738,-4.2896 -1.82424,-6.2335 -1.03297,-7 1.48688,-1.4402 7.92677,5.9573 7.92677,9.1055 0,1.2834 0.45,2.3334 1,2.3334 2.4717,0 -0.0296,-9.6932 -3.59449,-13.9299 -2.02967,-2.4121 -2.31295,-3.3745 -1.46157,-4.9653 1.4121,-2.6386 1.37016,-2.7894 -0.94394,-3.3945 -1.15682,-0.3026 -2,-1.3641 -2,-2.5179 0,-1.2116 -1.34523,-2.7886 -3.42639,-4.0165 -4.85742,-2.8659 -7.09241,-6.717 -6.89272,-11.8767 0.12781,-3.3024 -0.27205,-4.5452 -1.70986,-5.3147 -1.63521,-0.8751 -1.96314,-0.5435 -2.54869,2.5778 -0.46337,2.4699 -1.39283,3.8562 -2.99364,4.4648 l -2.32161,0.8827 2.53682,7.5451 c 2.94231,8.7511 4.74052,9.9238 3.74834,2.4444 -0.6167,-4.6489 -0.50904,-5.0685 1.21556,-4.7365 2.00255,0.3854 10.39219,14.8423 10.39219,17.9076 0,1.3812 -1.40092,1.8259 -7.57438,2.4044 -4.1659,0.3904 -7.77849,0.5057 -8.02798,0.2562 -0.24948,-0.2495 0.004,-1.6571 0.5632,-3.128 1.40597,-3.698 -1.1577,-4.5729 -5.02387,-1.7145 -1.60526,1.1868 -4.38528,2.4367 -6.17782,2.7775 -1.79253,0.3408 -4.4396,1.2124 -5.88237,1.9369 -3.20027,1.6071 -3.87678,1.0366 -3.87678,-3.2696 0,-2.5432 0.42667,-3.3333 1.8,-3.3333 0.99,0 2.34,-0.54 3,-1.2 1.59779,-1.5978 1.55882,-7.7669 -0.05,-7.9153 -0.6875,-0.063 -1.91752,-0.176 -2.73337,-0.25 -0.81585,-0.074 -2.0894,-1.3962 -2.8301,-2.938 -1.16064,-2.4159 -1.12561,-3.1407 0.25353,-5.2456 0.99682,-1.5213 1.36254,-3.3894 0.96986,-4.954 -0.37748,-1.504 -0.0478,-3.4114 0.82166,-4.7544 2.84901,-4.4003 3.06085,-7.8025 0.64589,-10.3731 -2.01865,-2.1488 -5.87747,-3.2896 -5.87747,-1.7376 0,0.3476 0.95706,2.1805 2.1268,4.0732 1.63039,2.638 1.85224,3.7158 0.95048,4.6175 -2.04407,2.0441 -8.34206,-2.3878 -9.88203,-6.954 -0.71761,-2.1278 -2.40511,-5.0183 -3.75,-6.4234 -2.83,-2.9567 -3.03006,-4.2151 -0.94525,-5.9453 1.89029,-1.5688 1.95033,-4 0.0988,-4 -0.77068,0 -2.34475,-1.5991 -3.49794,-3.5537 -1.89552,-3.2126 -1.95998,-3.818 -0.67179,-6.3091 1.81631,-3.5123 0.65496,-5.4115 -3.04329,-4.9766 -2.60845,0.3068 -2.91587,0.027 -3.19912,-2.9106 -0.36718,-3.8083 0.003,-3.9137 4.33883,-1.2343 2.58262,1.5962 3.8041,1.8095 5.86803,1.0248 2.76975,-1.0531 3.25873,-2.9533 1.57132,-6.1062 -0.80979,-1.5131 -0.7083,-1.9343 0.46607,-1.9343 0.82569,0 3.10038,-0.7626 5.05487,-1.6946 3.29718,-1.5723 3.67225,-1.576 5.19769,-0.05 1.66967,1.6697 1.95247,4.2763 2.63037,24.2451 0.23853,7.0262 0.62142,9 1.74586,9 0.94169,0 1.99505,-2.2502 3.04269,-6.5 1.90738,-7.7372 4.5114,-14.1351 6.18642,-15.1996 2.80051,-1.7798 3.28375,-0.5929 3.38001,8.3014 l 0.0985,9.1017 -2.86395,-0.5728 c -4.27601,-0.8552 -5.57123,2.1606 -3.04375,7.0872 l 1.91843,3.7394 4.22648,-4.2265 c 4.22288,-4.2229 4.22588,-4.2312 3.52626,-9.8308 l -0.70022,-5.6044 4.08472,0.6901 c 2.2466,0.3796 4.08438,0.3131 4.08395,-0.1478 -4.3e-4,-0.4608 -1.58289,-2.6155 -3.51657,-4.7882 -3.71137,-4.17 -4.01184,-6.1795 -0.87502,-5.8522 16.11757,1.6819 15.39237,1.7105 15.39237,-0.6081 0,-3.0551 -3.63505,-9.8237 -5.93752,-11.0559 -1.06207,-0.5684 -2.8606,-1.0335 -3.99676,-1.0335 -2.7803,0 -2.73382,-3.477 0.077,-5.7598 7.87957,-6.3993 8.85726,-7.5411 8.85726,-10.3438 0,-2.5087 -0.37648,-2.8964 -2.81291,-2.8964 -1.82008,0 -3.82736,1.0589 -5.68709,3 -1.5808,1.65 -3.68999,3 -4.68709,3 -2.10316,0 -2.20009,-0.408 -0.74352,-3.1297 0.77855,-1.4547 0.74525,-2.3887 -0.12244,-3.4342 -1.61351,-1.9442 -2.51815,-1.8127 -4.86566,0.707 -1.76764,1.8974 -1.92753,3.039 -1.39423,9.9547 0.64266,8.3339 -0.88522,12.9022 -4.31515,12.9022 -1.72045,0 -1.72708,0.1748 0.60685,-16 0.67457,-4.675 1.68712,-9.3724 2.2501,-10.4386 0.82122,-1.5552 0.56534,-2.3096 -1.29407,-3.8153 -1.49384,-1.2096 -2.51623,-3.3642 -2.87624,-6.0614 -0.43985,-3.2954 -0.974,-4.1847 -2.51347,-4.1847 -1.26119,0 -2.16434,0.8872 -2.54508,2.5 -0.9809,4.1552 -4.17883,3.2141 -5.96793,-1.7562 -2.19594,-6.1005 -4.48069,-8.4203 -7.53744,-7.6531 -2.33061,0.585 -2.49463,0.3771 -2.49463,-3.1613 0,-4.9994 2.06676,-10.6178 3.67836,-9.9993 2.05802,0.7897 2.64326,-1.4172 0.88966,-3.3549 -0.89534,-0.9894 -2.03401,-4.2941 -2.53037,-7.3439 -1.28374,-7.8876 -10.36615,-33.6082 -15.61887,-44.2313 -2.74329,-5.548 -4.44293,-10.3424 -4.4313,-12.5 0.0104,-1.925 -0.84094,-6.65 -1.89179,-10.5 -1.05085,-3.85 -2.4484,-9.475 -3.10566,-12.5 -1.18162,-5.4384 -3.69357,-14.8013 -6.57302,-24.5 -0.81644,-2.75 -1.8987,-8.15 -2.405,-12 -0.50631,-3.85 -1.41955,-9.25 -2.02942,-12 -0.60988,-2.75 -1.35464,-8.2625 -1.65503,-12.25 l -0.54616,-7.25 3.72593,0 c 3.38221,0 3.66835,-0.2076 3.10173,-2.25 -0.34331,-1.2375 -0.90494,-4.79 -1.24805,-7.8944 -0.5592,-5.0595 -0.35351,-5.9989 1.98462,-9.0643 l 2.60848,-3.4199 -4.40291,-4.3212 c -2.99655,-2.9408 -4.93178,-4.1181 -6.05866,-3.6857 -1.51102,0.5798 -1.48553,0.9194 0.29162,3.8854 1.61511,2.6956 1.89764,4.7644 1.6559,12.1258 -0.29411,8.9564 -1.68009,12.6872 -3.57539,9.6243 -0.5105,-0.825 -2.83679,-4.65 -5.16952,-8.5 l -4.24134,-7 -7.00219,-0.2893 c -6.66415,-0.2753 -7.14275,-0.1425 -9.91399,2.75 -2.09638,2.1882 -3.83957,3.0393 -6.22472,3.0393 -4.1306,0 -4.33917,-1.5447 -0.31719,-2.3491 6.50131,-1.3003 10.4885,-6.1885 6.00428,-7.3612 -1.97423,-0.5162 -2.8747,-3.2897 -1.06809,-3.2897 0.51254,0 1.9382,-1.4132 3.16812,-3.1405 2.1881,-3.0729 2.19494,-3.169 0.31809,-4.4659 -1.05496,-0.729 -2.48062,-1.8085 -3.16812,-2.3989 -1.701,-1.4609 -1.52308,-8.0496 0.2818,-10.4358 0.82312,-1.0883 1.4682,-4.0758 1.4682,-6.7997 0,-2.6722 0.76213,-6.2987 1.69362,-8.0589 1.22615,-2.3169 1.77035,-6.2149 1.97162,-14.1219 0.15291,-6.0069 0.72171,-11.3653 1.264,-11.9076 1.66954,-1.6696 3.92342,1.1638 4.6198,5.8076 0.80502,5.3683 3.67222,10.2097 6.92394,11.6912 2.11204,0.9624 3.07135,0.736 6.50229,-1.5345 3.69103,-2.4426 4.02473,-3.03 4.02473,-7.0842 0,-5.5993 1.48131,-9.5509 3.58028,-9.5509 1.81754,0 1.70521,2.4394 -0.63135,13.7113 -1.15751,5.584 -1.10264,6.6214 0.54333,10.2715 2.83587,6.2889 8.97749,6.9185 10.15302,1.0408 0.82263,-4.1132 2.35472,-3.8258 2.35472,0.4416 0,2.4435 -0.90721,4.4985 -3.077,6.9697 -2.03811,2.3213 -2.87741,4.1334 -2.48586,5.367 0.37128,1.1699 -0.15795,2.5404 -1.423,3.6853 -2.86046,2.5887 -2.64842,7.9703 0.45956,11.6639 1.36053,1.6169 2.96768,4.8319 3.57144,7.1444 0.60375,2.3125 1.9398,6.0045 2.96898,8.2045 1.02919,2.2 2.83283,7.6 4.00808,12 2.49853,9.3542 3.1966,11.4698 7.09439,21.5 1.60299,4.125 3.62001,10.2 4.48227,13.5 0.86226,3.3 2.88026,7.9897 4.48444,10.4214 1.60419,2.4318 2.9167,5.1882 2.9167,6.1252 0,2.7492 6.4946,16.1175 9.882,20.3409 2.29386,2.86 3.118,4.919 3.118,7.7898 0,4.3612 2.66857,10.311 5.95946,13.2873 1.19475,1.0805 4.20686,5.025 6.69357,8.7656 2.48671,3.7405 6.16294,8.0315 8.1694,9.5354 2.00646,1.5039 4.75608,4.0844 6.11025,5.7344 1.35418,1.65 5.97331,6.5743 10.26473,10.9428 4.29143,4.3686 7.80259,8.4313 7.80259,9.0282 0,2.0351 6.94966,15.5928 14.73228,28.7405 8.55561,14.4535 11.55633,17.8387 34.76772,39.2226 8.25,7.6005 15,14.5496 15,15.4425 0,1.7074 -1.95475,1.8397 -8.25,0.5581 -2.59721,-0.5288 -3.25,-0.3376 -3.25,0.9518 0,1.0457 0.86232,1.6135 2.45031,1.6135 1.34767,0 2.81017,0.6202 3.25,1.3783 0.43983,0.7581 2.26219,1.6938 4.04969,2.0795 2.86166,0.6173 3.25,0.4489 3.25,-1.4097 0,-2.526 2.85057,-3.9079 4.05181,-1.9643 0.46748,0.7564 1.15438,3.1772 1.52646,5.3795 0.37208,2.2023 1.74234,5.4016 3.04502,7.1094 1.30268,1.708 2.88716,4.6403 3.52107,6.5163 0.6339,1.8761 2.67256,5.5124 4.53034,8.0807 1.85778,2.5684 4.22661,7.1369 5.26406,10.1523 1.03745,3.0154 2.38812,6.4203 3.00148,7.5663 0.91343,1.7068 0.75591,2.3914 -0.87063,3.7841 -1.96281,1.6806 -1.95388,1.7198 0.77019,3.3764 2.21788,1.3487 3.01915,2.9232 4.10368,8.0636 0.74121,3.5132 1.34413,7.9626 1.33981,9.8876 -0.004,1.925 0.61615,7.6043 1.37882,12.6207 0.98822,6.4999 1.09232,9.895 0.36229,11.8151 -0.56342,1.4819 -1.0244,4.2337 -1.0244,6.115 0,3.7199 -0.45561,5.9375 -4.92038,23.9492 -3.87055,15.6145 -4.98673,31.3517 -2.78805,39.3091 4.86218,17.597 4.94445,18.2909 3.65349,30.8123 -1.19047,11.5467 -0.98644,20.2816 1.03662,44.3786 0.48484,5.775 1.18976,11.7375 1.5665,13.25 0.5259,2.1113 0.3252,2.75 -0.86422,2.75 -0.85205,0 -1.7581,-0.7875 -2.01344,-1.75 z m -57.27751,-178.8318 c 0.33385,-0.87 0.60476,-2.5575 0.60204,-3.75 -0.003,-1.1925 0.76412,-4.3139 1.70408,-6.9363 1.66255,-4.6386 1.65367,-4.8235 -0.3267,-6.8039 l -2.03572,-2.0357 -1.7455,8.3038 c -0.96003,4.5672 -1.98825,9.3164 -2.28494,10.5539 -0.42335,1.7659 -0.10702,2.25 1.47016,2.25 1.10528,0 2.28274,-0.7118 2.61658,-1.5818 z m -64.06592,-23.1682 c -0.68889,-5.156 -2.00132,-6.7652 -4.09815,-5.025 -4.31824,3.5838 -3.10696,9.775 1.91244,9.775 2.78704,0 2.81286,-0.056 2.18571,-4.75 z m -27.32709,-13.75 c 0,-0.825 -0.45,-1.5 -1,-1.5 -0.55,0 -1,0.675 -1,1.5 0,0.825 0.45,1.5 1,1.5 0.55,0 1,-0.675 1,-1.5 z m 0.8,-5.7 c 2.21662,-2.2166 1.08902,-14.8 -1.32622,-14.8 -0.70193,0 -2.24262,1.6379 -3.42376,3.6398 -2.33161,3.9518 -2.09759,8.1698 0.60312,10.8705 1.80334,1.8033 2.57904,1.8575 4.14686,0.2897 z m 95.17171,-49.291 c 2.00472,-0.6363 2.55212,-1.6518 1.47238,-2.7316 -0.30575,-0.3057 -2.13605,-0.071 -4.06735,0.5218 -2.86042,0.8779 -3.40878,1.4599 -2.95774,3.1393 0.30453,1.1338 0.59654,2.9615 0.64892,4.0615 0.0722,1.5165 0.43128,1.2328 1.48536,-1.1736 0.76457,-1.7455 2.30287,-3.4633 3.41843,-3.8174 z m -7.39091,-9.2615 c -1.15374,-1.1538 -1.74564,0.6532 -0.95886,2.9271 l 0.80455,2.3254 0.36756,-2.3359 c 0.20215,-1.2847 0.10619,-2.5972 -0.21325,-2.9166 z M -38.47124,2001.4532 c 0.63951,-1.4035 2.73675,-3.2096 4.66052,-4.0134 1.92377,-0.8038 3.49776,-2.0876 3.49776,-2.853 0,-1.2156 -7.75149,-6.5816 -9.50753,-6.5816 -0.35826,0 -0.36829,1.2889 -0.0223,2.8643 0.48108,2.1903 0.0397,3.5647 -1.87588,5.8412 -2.30707,2.7419 -2.38552,3.1476 -0.99294,5.1358 1.96241,2.8017 2.8209,2.7221 4.24035,-0.3933 z m 5.97873,-20.0348 c 1.78462,-1.25 2.57202,-1.3324 3.70977,-0.3881 1.97041,1.6353 4.46978,0.4938 4.46978,-2.0415 0,-2.6918 -4.6442,-6.9836 -7.55713,-6.9836 -2.83725,0 -7.44287,5.3072 -7.44287,8.5767 0,2.9181 3.27508,3.3198 6.82045,0.8365 z m 102.69232,506.6075 c -0.33289,-0.5387 -0.0638,-1.9911 0.59803,-3.2277 1.1635,-2.174 1.22658,-2.183 1.90786,-0.2707 1.16732,3.2766 -0.87811,6.1322 -2.50589,3.4984 z m -82.99058,-29.2707 c -0.62668,-3.583 -0.11731,-13.8896 1.01267,-20.4904 0.49387,-2.885 0.32543,-4.723 -0.52692,-5.75 -0.76952,-0.9272 -0.84737,-1.5096 -0.20181,-1.5096 2.00552,0 4.19387,-3.1581 4.19387,-6.0524 0,-2.3481 0.53064,-3.0363 2.75,-3.5664 1.5125,-0.3613 3.3125,-1.1 4,-1.6415 1.66272,-1.3097 1.58974,1.0582 -0.27,8.7603 -0.79682,3.3 -1.45579,7.4472 -1.46438,9.2161 -0.009,1.7688 -0.66333,4.6938 -1.45498,6.5 -0.79164,1.8061 -2.3796,6.5464 -3.52878,10.5339 -2.26928,7.8741 -3.62219,9.0741 -4.50967,4 z m 12.47781,-43.6235 c 0,-0.6637 -1.86029,-2.9245 -4.13397,-5.0239 l -4.13398,-3.8172 1.21975,-5.0845 c 0.97385,-4.0594 0.96184,-5.7977 -0.0595,-8.6223 -1.17052,-3.237 -1.08919,-3.7401 0.95672,-5.9179 1.91347,-2.0367 2.0706,-2.7431 1.08937,-4.8966 -0.93121,-2.0438 -0.82865,-3.0019 0.54589,-5.0997 1.15115,-1.7569 1.48302,-3.5369 1.03756,-5.5651 -0.80871,-3.682 0.77089,-6.8551 3.62387,-7.2795 3.90853,-0.5814 4.54018,-3.2284 2.01211,-8.4319 -2.02122,-4.1603 -2.1109,-4.8634 -0.78901,-6.1853 1.3219,-1.3219 2.06883,-0.9919 6.57122,2.903 5.74831,4.9727 5.72835,4.8162 2.28246,17.8944 -5.21155,19.7794 -5.69167,22.0638 -8.05571,38.3296 -0.87886,6.047 -2.16675,10.087 -2.16675,6.7969 z m -10.66417,-1.6937 c -0.83346,-2.172 1.28244,-4.2145 2.79695,-2.7 1.28004,1.28 0.48705,4.2672 -1.13278,4.2672 -0.58452,0 -1.3334,-0.7052 -1.66417,-1.5672 z m 18.63094,-72.0103 c -1.10937,-2.5881 -1.84942,-4.8732 -1.64456,-5.078 1.00604,-1.0061 5.67779,4.0699 5.67779,6.1691 0,4.2494 -1.97279,3.7157 -4.03323,-1.0911 z m -14.47232,-7.4286 c -2.4709,-2.7303 -1.37566,-3.4234 3.18855,-2.0176 6.83837,2.1062 7.02204,2.2364 4.317,3.0617 -4.13791,1.2623 -5.60264,1.0586 -7.50555,-1.0441 z m 22.58455,-90.7439 c 0.0435,-0.9625 0.6266,-4.8731 1.2959,-8.6903 1.10497,-6.302 1.47101,-7.0083 3.97956,-7.6792 3.32588,-0.8895 4.18892,0.5601 2.68635,4.5122 -0.57244,1.5056 -1.04081,4.3128 -1.04081,6.2381 0,1.9254 -0.46583,4.3711 -1.03518,5.4349 -1.34336,2.5101 -5.99739,2.6558 -5.88582,0.1843 z m -16.829,-1.642 c 0.9625,-0.7307 1.75,-2.3111 1.75,-3.5121 0,-1.5249 0.52791,-2.0949 1.75,-1.8897 1.43464,0.2409 1.69456,-0.3369 1.44233,-3.2062 -0.84263,-9.5855 -0.63897,-15.3409 0.55714,-15.7446 0.68721,-0.2319 1.50757,0.4032 1.82301,1.4114 0.31544,1.0083 1.19811,3.2742 1.9615,5.0353 1.18976,2.7448 1.17933,4.2926 -0.073,10.838 -0.80354,4.1997 -1.46098,7.8213 -1.46098,8.0479 0,0.2266 -2.1375,0.3977 -4.75,0.3802 -4.16431,-0.028 -4.53422,-0.1956 -3,-1.3602 z m -69.25,-269.108 c 0,-0.8333 0.88889,-1.5 2,-1.5 2.38425,0 2.65261,1.5356 0.41821,2.393 -2.23506,0.8577 -2.41821,0.7901 -2.41821,-0.893 z"
         style="fill:#533119" />
      <path
         inkscape:connector-curvature="0"
         id="path4672"
         d="m 122.67868,2454.9789 c -0.8204,-0.5187 -3.40414,-0.95 -5.74164,-0.9584 -4.77851,-0.017 -5.02845,-0.4633 -2.25,-4.0153 1.08764,-1.3905 1.9654,-4.0755 1.97776,-6.05 0.0122,-1.9525 0.42701,-3.9775 0.92173,-4.5 1.44989,-1.5313 5.33091,-18.4609 4.74537,-20.7 -0.43263,-1.6544 1.8742,-9.8673 6.91315,-24.6126 0.37163,-1.0875 0.76476,-1.1144 1.94697,-0.1333 1.0463,0.8684 1.30883,2.3081 0.89395,4.9026 -0.4674,2.9229 0.004,4.6794 2.30738,8.6001 1.70053,2.8943 3.81646,5.1468 5.12896,5.46 1.22882,0.2933 2.79235,1.6582 3.47451,3.0332 0.71547,1.4422 2.28755,2.6416 3.71525,2.8347 4.55614,0.6161 4.55894,1.9946 0.0135,6.6261 -2.40339,2.4489 -4.74525,4.2204 -5.20414,3.9368 -0.45889,-0.2836 -0.83435,-2.684 -0.83435,-5.3342 0,-4.8427 -1.5939,-7.5617 -3.66742,-6.2562 -0.60519,0.381 -2.49933,3.3928 -4.20919,6.6928 -2.33486,4.5062 -3.25872,7.8672 -3.71083,13.5 -0.53566,6.6738 -2.69677,15.2503 -4.3362,17.2084 -0.32619,0.3896 -1.26432,0.284 -2.08472,-0.2347 z m 27.00462,-0.1647 c -0.002,-0.7199 -0.998,-2.884 -2.2132,-4.809 -2.34103,-3.7084 -4.9284,-13.7921 -3.72909,-14.5334 0.39103,-0.2416 1.84733,0.4545 3.23622,1.547 4.51181,3.549 6.30839,2.1686 8.31532,-6.3892 0.5809,-2.4771 0.80823,-2.6365 1.6402,-1.1498 1.6462,2.9416 -0.10391,14.5738 -2.8216,18.754 -1.33326,2.0507 -2.42411,4.3866 -2.42411,5.1909 0,0.8044 -0.45,1.7406 -1,2.0805 -0.55,0.3399 -1.00168,0.029 -1.00374,-0.691 z m -83.09061,-3.5572 c -0.57467,-1.5115 -1.75828,-3.5365 -2.63024,-4.5 -1.47869,-1.6339 -1.37306,-1.7518 1.5696,-1.7518 2.68665,0 3.15499,-0.3659 3.15499,-2.4648 0,-2.6835 -2.50099,-4.5352 -6.12539,-4.5352 -2.13975,0 -2.16106,-0.07 -0.41056,-1.35 1.46825,-1.0737 1.71824,-2.1393 1.22087,-5.2042 -0.46235,-2.8491 -0.19267,-4.3322 1.03432,-5.688 1.54846,-1.7111 1.51554,-2.7534 -0.49091,-15.5459 -1.18286,-7.5416 -2.39715,-20.0119 -2.69841,-27.7119 -0.30127,-7.7 -0.82599,-16.3625 -1.16607,-19.25 l -0.61831,-5.25 2.97224,0 c 2.87168,0 6.28222,-2.5537 6.28222,-4.7038 0,-0.5755 1.4625,-1.7673 3.25,-2.6485 l 3.25,-1.6022 -3.35504,-0.023 c -3.29099,-0.022 -3.34604,-0.094 -2.88382,-3.7727 0.25917,-2.0625 1.048,-6.3596 1.75296,-9.5492 1.04158,-4.7125 1.042,-6.7985 0.002,-11.1326 -1.85153,-7.718 0.43496,-10.4637 3.60645,-4.3307 0.9208,1.7806 3.04155,4.5148 4.71277,6.076 2.98655,2.7898 3.01728,2.918 1.7949,7.4884 -0.68403,2.5575 -1.73358,4.9528 -2.33233,5.3228 -0.64853,0.4008 -0.83128,1.9597 -0.45203,3.8559 0.35014,1.7507 0.21597,3.9691 -0.29816,4.9297 -0.66524,1.2431 -0.37442,2.6681 1.00863,4.9423 2.63484,4.3327 2.44944,6.2884 -0.9004,9.4977 -2.59863,2.4897 -2.83083,3.2879 -2.69327,9.2586 0.10265,4.4554 0.60532,6.8152 1.58003,7.4176 1.23666,0.7643 1.23804,1.3279 0.0102,4.1785 -0.78057,1.8122 -1.34077,5.4325 -1.24488,8.045 l 0.17434,4.75 -4.43232,0 c -7.42981,0 -7.03998,4.2346 0.50722,5.5097 4.30224,0.7269 4.75638,1.8569 2.89362,7.2004 -1.19269,3.4214 0.34642,18.9875 2.0454,20.6865 1.26966,1.2696 1.24897,6.8265 -0.0463,12.4435 -0.95371,4.1357 -6.32675,12.1599 -8.14239,12.1599 -0.47156,0 -1.32757,-1.2367 -1.90223,-2.7482 z m 4.26561,-61.9068 c 2.04071,-1.8468 2.4401,-5.8491 0.69153,-6.9298 -1.48499,-0.9178 -4.81191,3.4362 -4.84055,6.3348 -0.0263,2.6606 1.60761,2.895 4.14902,0.595 z m -1.94659,-21.6743 c 1.06859,-1.6799 0.95779,-2.2744 -0.67663,-3.6308 -2.99212,-2.4833 -7.58973,0.8031 -6.19787,4.4303 0.51052,1.3303 1.31368,1.58 3.39913,1.0566 1.50187,-0.377 3.06578,-1.2122 3.47537,-1.8561 z m 81.95346,44.5793 c -1.1531,-2.2617 0.26023,-24.1645 2.27459,-35.25 0.8495,-4.675 1.54516,-10.0991 1.54591,-12.0537 0.002,-3.9409 5.24139,-15.5154 5.78503,-12.7786 0.40054,2.0163 -2.09875,14.5815 -4.92404,24.7557 -1.6071,5.7873 -2.09427,10.6891 -2.21051,22.2417 -0.082,8.1501 -0.47078,14.8221 -0.86393,14.8266 -0.39315,0.01 -1.11632,-0.7792 -1.60705,-1.7417 z M -1.3292,2397.3039 c -4.54242,-5.1184 -5.12023,-6.8652 -2.92733,-8.8498 2.14282,-1.9392 2.47669,-4.5842 0.94087,-7.454 -1.39667,-2.6096 0.40717,-3.4842 4.06306,-1.9699 3.7119,1.5375 4.17384,5.6606 0.68964,6.1554 -2.95163,0.4193 -3.44084,3.9612 -1.22562,8.8737 2.28711,5.0719 1.51818,6.6913 -1.54062,3.2446 z m 123.17444,-38.6992 c -0.73799,-2.0621 -1.11195,-3.9791 -0.83102,-4.26 0.88756,-0.8876 2.81216,3.6703 2.48561,5.8865 -0.2469,1.6756 -0.59542,1.333 -1.65459,-1.6265 z m -5.31996,-10.1112 c -0.36398,-0.5565 -0.66177,-4.3773 -0.66177,-8.4907 0,-7.4317 0.0271,-7.5078 4.29563,-12.0712 2.42448,-2.592 4.61555,-6.0808 5.03008,-8.0094 0.40394,-1.8793 1.18613,-4.2775 1.7382,-5.3293 0.91889,-1.7507 1.11615,-1.645 2.33341,1.25 0.87206,2.074 2.02802,3.1623 3.35888,3.1623 3.05141,0 3.85521,-4.9047 1.9666,-12 -0.27431,-1.0305 0.49755,-1.6025 2.46614,-1.8276 2.71717,-0.3106 2.83415,-0.5229 2.26132,-4.1052 -0.47697,-2.9828 -0.19239,-4.1503 1.35239,-5.5483 1.92213,-1.7395 1.94623,-1.6843 1.37381,3.149 -0.57236,4.8327 -0.49055,5.0203 4.63255,10.6258 2.86836,3.1385 5.84505,5.7063 6.61486,5.7063 2.5838,0 1.43139,1.8635 -1.35034,2.1836 -3.47636,0.4 -4.15426,3.6881 -1.29402,6.2766 2.92914,2.6508 2.52649,4.3459 -2.50363,10.5398 -2.45663,3.025 -5.14443,6.9625 -5.97289,8.75 -1.76892,3.8166 -3.47946,4.2455 -3.47946,0.8724 0,-2.9264 -1.60423,-4.3417 -5.42274,-4.7839 -2.21772,-0.2568 -2.96201,-0.8898 -3.0855,-2.624 -0.22499,-3.1595 -1.95447,-4.6667 -4.17454,-3.6381 -0.99947,0.463 -3.16722,0.8603 -4.81722,0.8828 l -3,0.041 -0.5,8 c -0.275,4.4 -0.79779,7.5447 -1.16176,6.9882 z m 42.72782,-0.3814 c -0.90801,-1.4692 1.26752,-9.1069 2.594,-9.1069 1.22433,0 0.946,4.0398 -0.51422,7.4635 -0.91748,2.1511 -1.48759,2.6016 -2.07978,1.6434 z M 28.68704,2336.9916 c 0,-1.1074 -0.53507,-2.8703 -1.18905,-3.9175 -0.95512,-1.5294 -0.83105,-2.6979 0.63059,-5.9393 1.58257,-3.5095 1.6627,-4.6585 0.61506,-8.8191 -1.87348,-7.4403 -4.70849,-9.5507 -6.79802,-5.0605 -1.87898,4.0377 -2.76109,-0.7824 -0.92489,-5.0538 1.49959,-3.4883 2.04422,-6.1985 1.78146,-8.8646 -0.16036,-1.6272 -6.40193,-5.3316 -8.98318,-5.3316 -2.73051,0 -2.74774,2.2676 -0.0504,6.632 1.17681,1.9041 1.59616,3.368 0.96482,3.368 -2.40454,0 -5.9519,-3.2933 -6.56779,-6.0975 -0.35641,-1.6227 -1.7909,-4.3086 -3.18774,-5.9687 -2.78934,-3.3149 -2.39428,-5.2424 0.53176,-2.5943 2.50101,2.2633 4.7671,2.0844 6.59174,-0.5207 1.43926,-2.0548 1.63537,-2.0838 3.38545,-0.5 1.02172,0.9247 3.03519,1.6812 4.47437,1.6812 2.99678,0 4.56568,2.3743 9.7286,14.7224 0.51724,1.2371 2.16352,2.4934 3.71322,2.8335 4.86863,1.0687 5.28401,1.339 5.28401,3.4375 0,1.273 -0.9521,2.4181 -2.5,3.0066 -3.0325,1.153 -3.14638,3.14 -0.58531,10.2125 3.54689,9.7949 3.60069,9.2954 -1.31137,12.1741 -5.35855,3.1403 -5.60333,3.1665 -5.60333,0.5998 z m 29.60038,-9.4735 c -0.89629,-1.368 -3.36755,-3.3738 -5.49167,-4.4574 -3.75193,-1.9141 -5.10871,-3.6848 -5.10871,-6.6671 0,-1.1261 0.89326,-0.9411 4.01674,0.8317 l 4.01674,2.2799 3.40543,-4 c 4.02656,-4.7296 5.72936,-3.9987 4.65928,2 -0.39245,2.2 -0.31175,5.5248 0.17933,7.3883 0.66321,2.5168 0.54943,3.6061 -0.44232,4.2347 -2.21526,1.4042 -3.52336,1.0019 -5.23482,-1.6101 z m -40.13551,-3.5697 c -0.87129,-1.4098 0.31422,-5.9432 1.55418,-5.9432 0.53952,0 0.98095,1.575 0.98095,3.5 0,3.4066 -1.21565,4.5781 -2.53513,2.4432 z m 74.12842,-5.1135 c -0.87631,-1.2511 -1.59329,-3.4878 -1.59329,-4.9704 0,-4.7021 -0.88978,-5.8313 -4.09045,-5.1912 -2.60258,0.5205 -2.90955,0.3136 -2.90955,-1.9613 0,-5.6184 2.5532,-7.2683 6.55887,-4.2386 1.06762,0.8075 3.12615,1.4825 4.5745,1.5 3.41184,0.041 3.92901,2.1332 2.49572,10.0954 -1.24419,6.9118 -2.62052,8.2144 -5.0358,4.7661 z m 11.45,1.0984 c -0.0238,-0.8645 0.68024,-3.6953 1.56456,-6.2906 1.59011,-4.6667 1.57908,-4.7603 -1,-8.4819 -1.43432,-2.0697 -2.60785,-4.3014 -2.60785,-4.9593 0,-2.2139 5.45805,-1.1434 11,2.1574 6.44875,3.841 7.74335,7.0073 3.30358,8.0799 -1.54197,0.3725 -4.9216,3.0149 -7.51029,5.8719 -2.8293,3.1225 -4.72397,4.5675 -4.75,3.6226 z m -26.74401,-5.1781 c -4.11937,-4.5227 -4.70428,-6.7295 -2.55097,-9.6249 2.34719,-3.156 5.73035,-3.9261 6.65562,-1.5149 0.7874,2.052 -0.36315,13.3898 -1.35878,13.3898 -0.38309,0 -1.61873,-1.0125 -2.74587,-2.25 z m -27.56861,-7.0095 c -0.26582,-0.6927 -0.25671,-3.6177 0.0202,-6.5 0.50033,-5.207 0.52553,-5.2405 3.94206,-5.2405 4.5118,0 6.9408,-1.3911 8.83927,-5.0623 1.55541,-3.0079 3.46776,-3.1658 3.46776,-0.2864 0,0.8433 0.9,2.6774 2,4.0758 2.23582,2.8424 2.62433,7.2486 0.8,9.0729 -1.68329,1.6833 -2.3402,1.5306 -5.32779,-1.2382 -3.23545,-2.9985 -4.34523,-2.6227 -7.25207,2.4554 -2.26356,3.9543 -5.49647,5.311 -6.48947,2.7233 z m -9.07568,-3.5692 c -0.91025,-1.0058 -1.65499,-2.8354 -1.65499,-4.0658 0,-3.6056 -1.85689,-6.1055 -4.53518,-6.1055 -3.19047,0 -3.19047,-2.2945 0,-4.385 4.15303,-2.7212 6.81439,-2.0431 8.78518,2.2384 1.75367,3.8098 2.28046,9.6007 1.14301,12.5648 -0.78946,2.0573 -1.70758,1.9967 -3.73802,-0.2469 z m 106.40121,-2.0663 c -0.7385,-1.3799 -0.64822,-2.1987 0.33213,-3.0123 1.73765,-1.4421 3.92358,0.9309 3.02193,3.2806 -0.82859,2.1592 -2.10973,2.0568 -3.35406,-0.2683 z m -24.8562,-0.305 c -0.66,-0.66 -1.2,-1.9601 -1.2,-2.8892 0,-2.4305 3.45481,-6.3658 4.83805,-5.5109 2.40232,1.4847 0.84854,9.6001 -1.83805,9.6001 -0.33,0 -1.14,-0.54 -1.8,-1.2 z m -27.91028,-3.6209 c -1.65271,-1.0215 -3.24622,-5.6314 -2.41274,-6.98 0.75869,-1.2276 7.12302,2.0169 7.12302,3.6312 0,1.572 -3.52744,4.0798 -4.71028,3.3488 z m 36.36522,-0.1791 c -0.2715,-0.825 -0.77043,-3.8625 -1.10873,-6.75 -0.54883,-4.6844 -0.41322,-5.25 1.25883,-5.25 1.94496,0 4.19496,3.7203 4.19496,6.9363 0,1.0132 -0.86657,2.9045 -1.92571,4.2029 -1.52885,1.8743 -2.02744,2.0517 -2.41935,0.8608 z m -15.18348,-1.3972 c -1.66021,-1.214 -1.69966,-1.8152 -0.49241,-7.5041 1.40378,-6.6149 3.10966,-8.4113 7.01721,-7.3894 1.98643,0.5194 2.23993,0.3019 1.76491,-1.5146 -0.78259,-2.9926 1.47766,-4.516 5.44787,-3.6719 3.28651,0.6988 6.79096,3.0693 6.79096,4.5935 0,0.4434 -2.32482,1.4966 -5.16626,2.3404 -6.57581,1.9528 -8.71084,3.9226 -9.48252,8.7483 -0.72296,4.5212 -3.18876,6.3655 -5.87976,4.3978 z m -38.22146,-2.1265 c -1.58992,-1.1233 -2.25,-2.5999 -2.25,-5.033 0,-3.0062 -0.31737,-3.4433 -2.5,-3.4433 -1.375,0 -2.5,-0.3716 -2.5,-0.8257 0,-1.2468 4.09652,-4.7365 7.69325,-6.5537 3.63063,-1.8342 4.84846,-0.9151 3.88318,2.9309 -0.42938,1.7108 0.19575,3.6582 2.09608,6.5298 2.08177,3.1458 2.46721,4.4766 1.66686,5.7554 -1.41479,2.2604 -5.35449,2.5719 -8.08937,0.6396 z m 27.14883,-0.8793 c -0.29612,-0.7717 0.393,-3.2288 1.53139,-5.4602 2.63266,-5.1604 2.62592,-5.198 -0.80894,-4.5111 -5.32565,1.0652 -4.77267,-2.7767 1.38546,-9.6257 1.23631,-1.375 3.01298,-4.975 3.94815,-8 0.93517,-3.025 1.88372,-6.0819 2.10787,-6.7931 0.70385,-2.2332 3.92719,0.3356 5.89392,4.697 1.55377,3.4457 1.63258,4.4664 0.5472,7.0867 -0.69741,1.6837 -2.58927,4.0021 -4.20414,5.152 -2.63641,1.8773 -2.87031,2.4802 -2.29139,5.9068 0.86628,5.1275 -2.44615,12.9506 -5.4835,12.9506 -1.14819,0 -2.3299,-0.6314 -2.62602,-1.403 z m -56.61454,-1.7357 c -1.08022,-3.2207 8.30105,-17.2704 10.17214,-15.2341 0.44108,0.4801 1.33395,2.5383 1.98416,4.5738 1.28049,4.0088 0.67717,6.025 -2.72394,9.1029 -2.61991,2.371 -8.81633,3.3941 -9.43236,1.5574 z m 41.21571,-7.2939 c 0,-1.4764 3.70849,-3.1922 4.71786,-2.1829 0.83379,0.8338 -1.73618,3.6155 -3.3403,3.6155 -0.75766,0 -1.37756,-0.6447 -1.37756,-1.4326 z m 51.61162,-4.7853 c -1.75968,-4.0594 -2.11443,-7.7821 -0.74158,-7.7821 1.13097,0 3.49749,8.4473 2.85026,10.174 -0.28851,0.7696 -1.17325,-0.2339 -2.10868,-2.3919 z m -101.41162,0.018 c -1.88759,-1.8876 -1.40261,-2.9788 0.8,-1.8 1.1,0.5887 2,1.5045 2,2.0352 0,1.3244 -1.35417,1.2106 -2.8,-0.2352 z m 25.53431,-5.9387 c -2.05387,-2.1422 -3.73431,-4.3108 -3.73431,-4.8191 0,-1.6819 1.88974,-2.128 3.84413,-0.9075 1.54815,0.9669 2.61456,0.8755 5.4418,-0.4661 3.76201,-1.7852 5.61598,-2.0272 8.13228,-1.0616 2.89416,1.1106 1.64006,3.2789 -4.1839,7.2339 l -5.7657,3.9154 -3.7343,-3.895 z m 21.50867,-0.018 c -1.43325,-1.4332 -1.67338,-6.4589 -0.34776,-7.2782 0.49236,-0.3043 1.15324,0.1191 1.46861,0.941 0.31537,0.8218 1.74241,1.4942 3.17121,1.4942 2.24401,0 2.55471,0.3746 2.28138,2.75 -0.23995,2.0855 -0.92229,2.8208 -2.82344,3.043 -1.37887,0.1612 -3.06637,-0.2663 -3.75,-0.95 z m -37.58799,-1.6717 c -2.5968,-2.8694 -2.1149,-4.5017 1.09501,-3.7089 3.81974,0.9434 4.81425,2.1528 3.28517,3.9953 -1.65109,1.9894 -2.36271,1.9429 -4.38018,-0.2864 z m 49.65544,-0.9213 c -0.34474,-0.9625 -1.45562,-3.9042 -2.46862,-6.537 -2.33918,-6.0797 -2.33139,-6.1689 0.65819,-7.531 1.79989,-0.8201 2.5,-1.9229 2.5,-3.938 0,-3.1759 -2.47193,-7.244 -4.40172,-7.244 -2.29626,0 -4.72162,3.6571 -4.40342,6.6397 0.2138,2.0041 -0.14098,2.8603 -1.18524,2.8603 -0.98791,0 -1.7807,-1.5891 -2.35151,-4.7135 -0.84086,-4.6025 -4.40256,-9.7865 -6.7239,-9.7865 -0.80966,0 -0.95696,1.3626 -0.48648,4.5 0.61704,4.1147 0.49565,4.5 -1.41784,4.5 -1.15096,0 -2.34824,-0.666 -2.66062,-1.4801 -0.66954,-1.7448 2.47228,-12.3039 3.92882,-13.2041 0.55239,-0.3414 1.85593,0.5483 2.89677,1.9771 3.35516,4.6059 8.39192,7.0356 13.21462,6.3746 3.94819,-0.5412 4.53793,-0.3057 7.928,3.1661 3.98746,4.0835 4.30036,5.1516 2.41252,8.2355 -1.05481,1.723 -0.97673,2.1971 0.5,3.0361 2.14647,1.2194 2.24943,3.2354 0.25,4.8948 -0.825,0.6847 -1.5,2.0291 -1.5,2.9876 0,1.9861 -3.65836,7.0124 -5.10396,7.0124 -0.52735,0 -1.24087,-0.7875 -1.58561,-1.75 z m 25.15227,-2.3104 c -0.36044,-0.5832 -0.0797,-2.4499 0.62376,-4.1483 1.19241,-2.8788 1.09726,-3.2331 -1.40368,-5.2272 -2.76256,-2.2028 -3.49079,-4.9467 -1.61977,-6.103 0.58466,-0.3614 1.85759,0.062 2.82874,0.9409 0.97115,0.8789 2.69104,1.598 3.82198,1.598 2.23239,0 4.81177,3.2613 5.84948,7.3958 0.68168,2.716 -0.36629,3.4011 -2.27811,1.4893 -0.81987,-0.8199 -1.54116,-0.2906 -2.72568,2 -1.61619,3.1254 -3.87274,4.035 -5.09672,2.0545 z m -68.45909,-9.9325 c -2.41618,-4.7361 -2.52209,-6.5942 -0.42182,-7.4001 4.95119,-1.9 6.80129,0.1452 5.79938,6.4107 -0.86324,5.3985 -2.93387,5.7794 -5.37756,0.9894 z m 11.25938,-1.7698 c -1.00654,-2.6113 1.92956,-4.4621 6.0366,-3.8054 5.49954,0.8794 10.96549,3.3302 10.19778,4.5724 -0.94349,1.5266 -15.61752,0.8333 -16.23438,-0.767 z m 47.75232,-7.9283 c 0.008,-0.9949 0.45153,-2.484 0.98469,-3.309 0.7582,-1.1732 0.97271,-0.9138 0.98469,1.191 0.008,1.48 -0.43469,2.9691 -0.98469,3.309 -0.55,0.3399 -0.99311,-0.196 -0.98469,-1.191 z m -51.98013,-5.2433 c -1.44232,-2.695 -1.31834,-15.3825 0.16482,-16.8657 1.72031,-1.7203 8.31105,-1.4941 9.83109,0.3375 1.04191,1.2554 0.96109,2.6771 -0.44055,7.75 -0.9441,3.4169 -2.37356,7.225 -3.17659,8.4625 -1.79179,2.7612 -4.98538,2.9193 -6.37877,0.3157 z m 27.72274,-7.489 c -5.65822,-2.0194 -9.50359,-7.4662 -8.59648,-12.1765 0.53032,-2.7537 2.25765,-1.7385 3.13923,1.8451 0.84117,3.4193 3.95701,6.7547 6.31011,6.7547 0.98356,0 1.38922,-1.3384 1.38922,-4.5833 0,-5.964 1.70474,-5.4258 4.27977,1.3511 3.03438,7.9859 1.43998,9.6504 -6.52185,6.8089 z m -50.00792,-6.9002 c -1.5125,-1.2384 -2.75,-3.0136 -2.75,-3.945 0,-1.0323 1.07358,-1.9323 2.75,-2.3054 1.5125,-0.3366 3.5152,-0.8184 4.45044,-1.0707 0.93525,-0.2523 2.47643,-2.2175 3.42485,-4.3672 2.77529,-6.2903 7.12927,-6.0974 5.79459,0.2568 -0.48073,2.2886 -0.14797,2.9079 2.00177,3.7252 2.74339,1.0431 3.39769,3.8105 1.37835,5.8298 -0.66,0.66 -3.04899,1.2 -5.30887,1.2 -2.25988,0 -4.98238,0.6607 -6.05,1.4682 -2.4748,1.8718 -2.43043,1.878 -5.69113,-0.7917 z m -34.71456,-4.9265 0.03543,-3.25 1.42913,2.5 c 1.84109,3.2206 1.84109,4 0,4 -1.03291,0 -1.48897,-1.012 -1.46456,-3.25 z m 66.19273,-4.5444 c -2.24432,-1.726 -3.47679,-8.2903 -1.86006,-9.907 1.3626,-1.3626 5.80401,4.3702 5.96922,7.7049 0.19401,3.9159 -1.02859,4.5711 -4.10916,2.2021 z m -8.72749,-1.4725 c -0.23298,-0.6782 -0.55345,-2.7904 -0.71214,-4.6938 -0.22991,-2.7575 -0.79654,-3.5784 -2.78854,-4.0399 -1.54422,-0.3577 -3.34592,-2.0932 -4.71266,-4.5393 -5.03477,-9.011 -6.07628,-11.1463 -7.29693,-14.9601 -1.43179,-4.4735 -2.46677,-5.4624 -5.74041,-5.4847 -2.85467,-0.019 -2.94056,-2.9452 -0.25,-8.5153 3.09005,-6.3972 2.10551,-9.5704 -2.27067,-7.3186 -2.59448,1.335 -3.53415,0.303 -4.28537,-4.7065 -0.76878,-5.1266 1.29515,-9.4749 4.49731,-9.4749 4.35517,0 5.05873,-0.9884 5.05873,-7.107 0,-6.2821 0.65437,-7.0374 3.43494,-3.9649 1.30034,1.4369 1.48954,2.3844 0.74261,3.7191 -0.71923,1.2852 -0.56609,2.6346 0.54225,4.7778 1.02393,1.9801 1.17984,3.1085 0.46256,3.3476 -2.59938,0.8664 -6.18236,4.5358 -6.18236,6.3314 0,3.0179 2.57855,3.3378 8.17121,1.0136 4.83905,-2.011 5.17495,-2.0303 6.44035,-0.3696 1.79354,2.3537 2.7175,5.2563 1.92537,6.0484 -0.35512,0.3551 -1.01263,0.052 -1.46113,-0.6738 -0.91352,-1.4781 -4.22204,-1.1875 -4.75641,0.4178 -0.19049,0.5723 0.28602,1.9053 1.05892,2.9623 1.20376,1.6462 1.63934,1.7275 3.03764,0.5671 2.08514,-1.7306 2.27015,-1.4896 3.0174,3.9302 0.63472,4.6037 -0.76531,8.957 -3.13148,9.7371 -0.81752,0.2695 -1.29402,-1.4526 -1.5,-5.4211 -0.26749,-5.1536 -0.55703,-5.8522 -2.5422,-6.1343 -3.61765,-0.5139 -4.94515,3.6479 -2.84099,8.9067 0.92643,2.3153 1.95507,7.1082 2.28588,10.6508 0.65961,7.0635 1.79186,8.2669 5.98204,6.3577 2.0479,-0.933 3.0094,-0.8709 4.8136,0.3113 1.80246,1.181 2.39473,2.7863 2.95368,8.0057 0.38453,3.5907 0.42259,7.4 0.0846,8.465 -0.74093,2.3344 -3.44607,3.5767 -4.03777,1.8542 z m -36.25068,-7.8477 c -2.12433,-2.1845 -1.37392,-6.1007 2.55116,-13.3139 4.57313,-8.4043 6.19884,-9.3397 6.19884,-3.5669 l 0,4.1712 3.84186,-0.6491 c 3.72755,-0.6298 3.93385,-0.5077 6.93304,4.103 3.94734,6.0682 3.17469,7.8737 -3.74021,8.7397 -2.76908,0.3469 -7.17219,0.894 -9.78469,1.216 -3.2302,0.398 -5.14995,0.1741 -6,-0.7 z m 47.0032,-6.1354 c -1.98702,-1.389 -3.22525,-3.111 -3.23592,-4.5 -0.01,-1.2375 0.18951,-2.25 0.44225,-2.25 0.70723,0 5.54416,5.283 6.63782,7.25 1.3173,2.3692 0.0186,2.2003 -3.84415,-0.5 z m -56.0032,-5.4806 c -0.6875,-0.2399 -1.25,-1.0065 -1.25,-1.7038 0,-0.6972 -1.07292,-3.2856 -2.38427,-5.7519 -1.31135,-2.4663 -2.71293,-6.4708 -3.11464,-8.8989 -0.40171,-2.4282 -2.92878,-10.4741 -5.61573,-17.88 -4.6605,-12.8454 -5.95476,-19.0348 -3.98038,-19.0348 0.49774,0 2.08181,2.0081 3.52016,4.4625 1.43836,2.4543 4.40372,6.5289 6.58969,9.0546 5.05094,5.8359 5.55311,8.0054 3.41966,14.7735 -0.95233,3.0211 -1.48192,6.1434 -1.17686,6.9384 0.30506,0.795 3.52189,2.9209 7.14851,4.7243 7.56163,3.7602 8.40454,5.9998 3.84386,10.213 -3.06881,2.835 -5.13834,3.7524 -7,3.1031 z m 60,-5.2202 c -2.97343,-3.5816 -4.35039,-8.0492 -2.48082,-8.0492 0.42304,0 2.2535,2.7 4.06769,6 3.78432,6.8837 3.12912,7.7298 -1.58687,2.0492 z m -52.03006,-14.7965 c -4.05985,-2.0349 -4.84728,-4.8716 -3.28726,-11.8425 1.40174,-6.2636 2.46362,-7.2665 5.13455,-4.8494 2.18145,1.9742 3.65452,6.7684 4.11969,13.4078 0.36441,5.2012 -0.83028,5.8588 -5.96698,3.2841 z m -9.16365,-26.1475 c -0.55774,-1.0422 -2.4733,-2.4035 -4.25681,-3.0253 -3.91864,-1.366 -8.79948,-5.8427 -8.79948,-8.0708 0,-1.6129 6.62212,-8.7596 7.35784,-7.9407 0.2133,0.2374 1.13159,1.8941 2.04066,3.6816 2.06394,4.0583 3.11106,4.0956 4.4831,0.1598 1.68532,-4.8345 3.57394,-3.0749 3.93822,3.6692 0.33081,6.1244 -1.20493,13.421 -2.82478,13.421 -0.50857,0 -1.38101,-0.8527 -1.93875,-1.8948 z m 12.50041,-1.3277 c -0.85618,-1.2224 -1.5567,-2.9626 -1.5567,-3.8671 0,-1.9734 7.63576,-7.2641 9.46865,-6.5608 1.76277,0.6764 0.38579,8.0488 -1.99461,10.6791 -2.31944,2.5629 -3.99609,2.4918 -5.91734,-0.2512 z m -35.50413,-15.6745 c -2.57091,-5.0393 -2.582,-6.7493 -0.05257,-8.103 3.26496,-1.7474 2.67088,-6.6017 -1.04296,-8.5222 -3.27892,-1.6956 -4.95704,-4.9062 -4.95704,-9.4839 0,-3.8789 1.49067,-4.5397 4.64451,-2.0589 3.50979,2.7608 4.65334,2.6204 8.87964,-1.0903 3.26996,-2.8711 3.73558,-3.0135 5.16819,-1.5809 1.10597,1.1059 1.53499,3.2862 1.44183,7.3274 -0.0922,3.9997 0.351,6.2874 1.45425,7.5065 2.17439,2.4027 1.41468,5.2005 -1.59367,5.8691 -1.84154,0.4092 -3.35549,2.2536 -5.7821,7.0438 -1.80805,3.5692 -3.92189,6.6303 -4.69744,6.8026 -0.81255,0.1805 -2.27986,-1.3917 -3.46264,-3.7102 z m 30.3964,-0.5709 c -1.89224,-4.5288 -1.92374,-4.3894 2.03953,-9.0216 l 3.41341,-3.9895 1.54904,3.7074 c 2.87062,6.8703 1.46726,12.7716 -3.03716,12.7716 -1.92559,0 -2.85579,-0.8136 -3.96482,-3.4679 z m -6.44897,-16.4554 c 0,-0.5078 -1.19136,-2.3391 -2.64746,-4.0696 -1.45611,-1.7305 -3.16042,-5.4775 -3.78737,-8.3267 -2.07051,-9.4096 -0.085,-12.6109 5.39934,-8.7057 2.48466,1.7693 3.03549,2.8632 3.03549,6.0283 0,2.1267 0.47985,5.1289 1.06634,6.6715 1.34461,3.5366 0.34416,9.3255 -1.61165,9.3255 -0.80008,0 -1.45469,-0.4155 -1.45469,-0.9233 z M -8.1935,2100.6491 c -0.863,-1.0398 -0.51221,-2.264 1.50441,-5.25 4.36971,-6.4701 7.0206,-6.7527 6.02909,-0.6427 -0.94227,5.8065 -4.98237,8.9667 -7.5335,5.8927 z m -7.12133,-4.1488 c -0.54897,-1.4439 -0.9959,-3.3835 -0.99318,-4.3102 0.003,-0.9267 -0.78414,-3.8863 -1.74858,-6.5768 -1.69098,-4.7174 -1.68729,-4.9314 0.10339,-6 4.76233,-2.8419 6.65836,-5.0314 8.39994,-9.7001 1.03448,-2.7731 2.29925,-4.9572 2.81059,-4.8534 0.51134,0.1038 1.98273,3.1163 3.26975,6.6944 l 2.34004,6.5058 -5.2009,5.2663 c -4.39554,4.4508 -5.28169,5.9831 -5.72268,9.8956 -0.62052,5.5053 -1.8824,6.6975 -3.25837,3.0784 z m 18.87228,-10.2451 c -0.59406,-1.5125 -1.28839,-5.675 -1.54297,-9.25 l -0.46288,-6.5 2.56772,2.8058 c 1.41225,1.5431 2.56772,3.7102 2.56772,4.8157 0,1.1055 0.4963,2.9373 1.10288,4.0707 0.79451,1.4846 0.80051,2.7244 0.0214,4.4343 -1.42796,3.134 -2.92724,3.0013 -4.25391,-0.3765 z m -26.89516,-17.8151 c -0.53639,-1.4108 -0.97525,-3.5708 -0.97525,-4.8 0,-1.2292 -0.50975,-2.7446 -1.13278,-3.3677 -2.0564,-2.0564 -0.16644,-4.2672 3.64791,-4.2672 2.92752,0 3.88754,-0.5441 5.28138,-2.9931 2.0339,-3.5737 3.31137,-3.4115 4.39721,0.5583 0.81581,2.9825 -0.65339,8.4348 -2.27289,8.4348 -0.46009,0 -2.02325,2.025 -3.4737,4.5 -3.02282,5.1581 -4.10143,5.5395 -5.47188,1.9349 z m -5.30858,-20.1016 c -1.01106,-1.011 -0.79724,-10.1346 0.25271,-10.7835 1.46412,-0.9048 4.08062,2.3572 4.08062,5.0874 0,4.3092 -2.4715,7.558 -4.33333,5.6961 z m 6.43171,-15.3102 c -2.42356,-11.3006 -2.37487,-12.2606 0.81273,-16.0231 2.41113,-2.846 3.20612,-3.2613 4.25456,-2.2225 1.02791,1.0185 1.03898,1.6268 0.0546,3 -3.65252,5.0952 -3.78939,6.357 -0.93631,8.6319 3.37671,2.6925 3.53781,6.47 0.40159,9.4163 -1.27295,1.1959 -2.58566,2.1743 -2.91714,2.1743 -0.33147,0 -1.08299,-2.2396 -1.67003,-4.9769 z m -10.09838,-5.0231 c 0,-1.8667 0.26667,-2.1333 1.2,-1.2 0.93333,0.9333 0.93333,1.4667 0,2.4 -0.93333,0.9333 -1.2,0.6667 -1.2,-1.2 z m -3.13922,-39.9797 c -2.01478,-1.6895 -2.14094,-2.127 -0.86078,-2.9847 3.2846,-2.2007 8.88498,0.2158 7.69386,3.3198 -0.85386,2.2251 -3.96176,2.0727 -6.83308,-0.3351 z m -14.89768,-2.5648 c -0.87922,-1.0594 -2.1758,-1.3481 -4.1284,-0.9192 -2.76394,0.6071 -2.81589,0.5444 -1.78864,-2.1574 0.58188,-1.5305 3.08677,-4.9517 5.56642,-7.6026 3.32422,-3.5539 4.34354,-5.3395 3.8806,-6.7981 -0.34532,-1.088 -0.36288,-1.9782 -0.03903,-1.9782 0.45298,0 6.49851,3.6455 9.45649,5.7023 0.22579,0.157 -0.27299,1.0757 -1.1084,2.0416 -0.83541,0.9658 -2.04171,3.3117 -2.68067,5.2131 -1.27963,3.8078 -4.79362,8.043 -6.67334,8.043 -0.66178,0 -1.78004,-0.695 -2.48503,-1.5445 z"
         style="fill:#2f1b0c" />
    </g>
  </g>
</svg>
